<svg width="236" height="37" viewBox="0 0 236 37" fill="none" xmlns="http://www.w3.org/2000/svg">
<path d="M21.1443 19.0229C21.1126 19.0551 21.097 19.1033 21.0976 19.1673C21.1301 19.231 21.1305 19.279 21.0988 19.3113C21.0048 19.5361 20.9107 19.7609 20.8167 19.9857C20.7544 20.1783 20.6762 20.387 20.5822 20.6118C20.4261 21.0612 20.2054 21.4471 19.9202 21.7696C19.699 22.0916 19.4778 22.4135 19.2566 22.7355C19.0672 23.0251 18.8777 23.3148 18.6882 23.6045C18.3704 23.8632 18.0366 24.1062 17.6865 24.3332C17.3682 24.528 17.0178 24.7071 16.6352 24.8704C16.4437 24.9361 16.3004 25.0173 16.2053 25.1142C16.047 25.3076 15.8561 25.4372 15.6326 25.5032C15.4732 25.5686 15.3139 25.65 15.1548 25.7474C14.9953 25.8128 14.8363 25.9262 14.6777 26.0876C14.3588 26.2183 14.0401 26.3651 13.7215 26.5279C13.4349 26.6904 13.1158 26.7892 12.7641 26.8243C12.6681 26.8251 12.5722 26.842 12.4765 26.8748C12.4125 26.8753 12.3166 26.8922 12.1889 26.9253C12.0604 26.8624 11.916 26.8157 11.7557 26.7851C11.5951 26.7225 11.4344 26.6439 11.2736 26.5493C10.9859 26.5838 10.6983 26.6343 10.4109 26.7008C10.1232 26.7353 9.81962 26.786 9.50019 26.8528C9.37164 26.7899 9.24309 26.727 9.11453 26.6641C9.01798 26.601 8.90556 26.5539 8.77729 26.5231C8.64873 26.4602 8.53632 26.4132 8.44004 26.382C8.34349 26.3188 8.2155 26.32 8.05606 26.3853C7.92918 26.5145 7.81844 26.6594 7.72384 26.8203C7.62924 26.9811 7.53478 27.1579 7.44046 27.3508C7.40958 27.479 7.3947 27.6072 7.39581 27.7352C7.39693 27.8632 7.39791 27.9751 7.39875 28.0711L7.59786 28.8854C7.59981 29.1094 7.56935 29.2857 7.50647 29.4143C7.38155 29.7674 7.36876 30.1355 7.46811 30.5186C7.59973 30.9335 7.6515 31.3651 7.62341 31.8133C7.62732 32.2613 7.63123 32.7093 7.63514 33.1573C7.50994 33.4784 7.44887 33.8149 7.45194 34.1669C7.45501 34.5189 7.42609 34.8712 7.36516 35.2237C7.366 35.3197 7.3507 35.3998 7.31926 35.4641C7.06634 35.8183 6.74789 35.9971 6.3639 36.0005C6.01191 36.0036 5.64393 36.0068 5.25994 36.0101C4.90796 36.0132 4.55527 35.9363 4.20189 35.7793C4.10561 35.7482 3.99348 35.7332 3.86548 35.7343C3.73749 35.7354 3.60949 35.7365 3.4815 35.7376C3.19379 35.7721 2.9058 35.7746 2.61753 35.7452C2.32954 35.7477 2.04099 35.6862 1.75189 35.5607C1.62333 35.4978 1.46306 35.4672 1.27107 35.4689C1.11107 35.4703 0.951081 35.4717 0.791087 35.4731C0.758529 35.4094 0.726112 35.3617 0.693834 35.3299C0.661835 35.3302 0.645696 35.3144 0.645417 35.2824C0.547186 35.0272 0.464955 34.7719 0.398724 34.5165C0.332492 34.261 0.2824 34.0215 0.248446 33.7978C0.24705 33.6378 0.213655 33.4781 0.148261 33.3186C0.0828674 33.1592 0.033473 32.9996 7.79831e-05 32.8399C-0.00215601 32.5839 0.0436081 32.3275 0.13737 32.0707C0.231412 31.8458 0.293455 31.6213 0.323499 31.397C0.289545 31.1733 0.255592 30.9496 0.221638 30.7259C0.219963 30.5339 0.234287 30.3418 0.26461 30.1495C0.262935 29.9575 0.22926 29.7658 0.163587 29.5743C0.129913 29.3826 0.0800996 29.1751 0.0141473 28.9516C0.0773071 28.8551 0.140188 28.7265 0.202789 28.566C0.297389 28.4051 0.36013 28.2606 0.391012 28.1323C0.453055 27.9078 0.43524 27.6999 0.337568 27.5087C0.239897 27.3176 0.205664 27.0619 0.23487 26.7416C0.297751 26.6131 0.344632 26.4846 0.375514 26.3564C0.438115 26.1958 0.500716 26.0353 0.563318 25.8747C0.495969 25.4913 0.442665 24.8837 0.403406 24.052C0.363867 23.1884 0.324608 22.3567 0.285628 21.557C0.278647 20.757 0.290039 20.2289 0.319803 19.9726C0.251896 19.5252 0.248266 19.1092 0.308913 18.7247C0.36928 18.3081 0.461646 17.8913 0.586011 17.4742C0.616613 17.3139 0.647495 17.1856 0.678656 17.0894C0.741537 16.9608 0.804418 16.8323 0.867298 16.7037C0.929341 16.4792 0.990686 16.1746 1.05133 15.7901C1.1437 15.3732 1.20574 15.1487 1.23746 15.1164C1.36099 14.6033 1.43791 14.2506 1.46824 14.0584C1.49828 13.8341 1.5606 13.6415 1.6552 13.4807C1.78152 13.2876 2.00286 12.9817 2.31922 12.5629C2.63558 12.1441 2.9191 11.6296 3.16978 11.0194C3.16978 11.0194 3.18536 10.9713 3.21652 10.875C3.27968 10.7784 3.32656 10.65 3.35717 10.4897C3.42061 10.4252 3.46818 10.3768 3.4999 10.3445C3.53162 10.3122 3.56334 10.2799 3.59506 10.2477L3.92519 9.57275C4.20787 8.96226 4.66808 8.52623 5.30582 8.26466C5.49726 8.19898 5.68841 8.10131 5.87929 7.97164C6.10188 7.80969 6.35648 7.64746 6.64307 7.48496C7.05822 7.38533 7.48908 7.25356 7.93567 7.08966C8.38226 6.92576 8.86098 6.77757 9.37185 6.64511C9.56328 6.57944 9.77099 6.54562 9.99498 6.54367C10.219 6.54172 10.4428 6.52376 10.6665 6.48981C10.8268 6.52041 10.9871 6.55101 11.1474 6.58161C11.3074 6.58022 11.4833 6.57868 11.6753 6.57701C11.9636 6.60649 12.2359 6.63612 12.4921 6.66588C12.7804 6.69537 13.0532 6.78899 13.3106 6.94675C13.4389 6.97763 13.5672 7.00851 13.6955 7.0394C13.8554 7.038 13.9996 7.05274 14.1279 7.08362C14.3518 7.08167 14.5918 7.07958 14.8478 7.07734C15.1038 7.07511 15.3441 7.10501 15.5686 7.16706C15.6652 7.23022 15.8742 7.3404 16.1955 7.4976C16.5489 7.65452 16.7416 7.73284 16.7736 7.73256C16.9022 7.79544 16.9827 7.85874 17.0153 7.92246C17.0798 7.9859 17.1445 8.06534 17.2094 8.16078C17.2742 8.25621 17.3549 8.33551 17.4515 8.39867C17.9022 8.71475 18.2894 9.07938 18.613 9.49258C18.9684 9.87349 19.308 10.2865 19.6319 10.7317C19.7944 11.0183 19.9722 11.2248 20.1653 11.3511C20.2622 11.4463 20.3431 11.5576 20.4082 11.685C20.5051 11.7802 20.6021 11.8913 20.6992 12.0185C20.7008 12.2105 20.7027 12.4185 20.7046 12.6424C20.7063 12.8344 20.724 13.0263 20.7576 13.218C20.7588 13.346 20.776 13.4899 20.8094 13.6496C20.8748 13.809 20.9242 13.9686 20.9576 14.1283C20.9264 14.2246 20.9128 14.4967 20.9167 14.9447C20.9203 15.3607 20.9389 15.6485 20.9722 15.8082C21.1362 16.2548 21.1396 16.6548 20.9827 17.0082C20.9204 17.2007 20.9541 17.3924 21.0837 17.5833C21.1169 17.711 21.119 17.951 21.09 18.3033C21.0931 18.6553 21.1112 18.8951 21.1443 19.0229ZM14.8886 17.2534C14.8519 16.7097 14.7357 16.2307 14.5401 15.8164C14.3762 15.3698 14.1166 14.956 13.7612 14.5751C13.4704 14.2576 13.1802 14.0042 12.8905 13.8147C12.6326 13.5929 12.3268 13.3876 11.9731 13.1987C11.3963 13.1077 10.8845 13.1282 10.4376 13.2601C10.3107 13.3892 10.0714 13.4713 9.71973 13.5063C9.40003 13.5411 9.19273 13.6229 9.09785 13.7518C8.97209 14.0089 8.78261 14.2985 8.52941 14.6208C8.30793 14.9107 8.16534 15.072 8.10162 15.1045C7.91326 15.5222 7.78931 15.9873 7.72978 16.4998C7.70225 17.0121 7.73816 17.4598 7.83751 17.8429C7.9043 18.1624 7.97095 18.4658 8.03746 18.7532C8.10397 19.0406 8.17034 19.3121 8.23657 19.5675C8.23741 19.6635 8.2701 19.7432 8.33466 19.8067C8.39894 19.8381 8.44805 19.9657 8.48201 20.1894C8.51596 20.4131 8.58121 20.5565 8.67777 20.6197C8.74344 20.8111 8.85655 20.9382 9.01711 21.0008C9.17738 21.0314 9.37021 21.1257 9.5956 21.2837C9.6916 21.2829 9.78773 21.298 9.88401 21.3292C9.98 21.3284 10.092 21.3274 10.22 21.3263C10.476 21.324 10.7161 21.3379 10.9404 21.368C11.1644 21.366 11.3886 21.3961 11.6132 21.4581C11.9346 21.6153 12.3184 21.596 12.7647 21.4001C12.8282 21.3355 12.9238 21.2867 13.0515 21.2536C13.2109 21.1882 13.3222 21.1072 13.3854 21.0106C13.5771 20.977 13.6722 20.8801 13.6708 20.7201C13.7012 20.5279 13.748 20.3994 13.8115 20.3349C14.223 19.8193 14.4905 19.3049 14.614 18.7918C14.7693 18.2465 14.8608 17.7336 14.8886 17.2534Z" fill="#BF2C2F"/>
<path d="M46.157 16.4045C46.2564 16.7876 46.2435 17.1398 46.1183 17.4609C46.0557 17.6214 46.009 17.7818 45.9784 17.9421C45.9478 18.1024 45.9492 18.2624 45.9826 18.4221C46.0149 18.4538 46.0153 18.5018 45.9839 18.5661C45.9842 18.5981 45.9846 18.6461 45.9851 18.7101C45.8594 18.9672 45.7978 19.2397 45.8003 19.5277C45.8348 19.8154 45.8692 20.0871 45.9034 20.3428L45.4293 21.019L45.4347 21.643C45.3713 21.7075 45.292 21.7882 45.1968 21.8851C45.1014 21.9499 44.9742 22.047 44.8154 22.1764C44.7533 22.401 44.6594 22.6418 44.5336 22.8989C44.4399 23.1557 44.362 23.3964 44.2999 23.621L44.3041 24.1009C44.1773 24.2301 44.0182 24.3434 43.8271 24.4411C43.6359 24.5388 43.4772 24.6842 43.3509 24.8773C43.2237 24.9744 43.0964 25.0555 42.969 25.1206C42.8415 25.1857 42.6982 25.267 42.5391 25.3644C42.4754 25.3969 42.3955 25.4136 42.2995 25.4145C42.2352 25.383 42.1712 25.3836 42.1075 25.4162C41.6275 25.4203 41.3895 25.6464 41.3934 26.0944C41.0434 26.3215 40.6935 26.5645 40.3437 26.8236C40.026 27.0824 39.6922 27.3413 39.3425 27.6004C38.8021 28.0211 38.1007 28.3152 37.2381 28.4828C36.9504 28.5173 36.6791 28.5996 36.4242 28.7299C36.1691 28.8281 35.8978 28.9105 35.6104 28.977C35.5464 28.9776 35.4662 28.9622 35.3699 28.9311C35.2737 28.8999 35.1937 28.9006 35.1299 28.9332C34.7462 28.9685 34.346 28.94 33.9292 28.8477C33.8009 28.8168 33.6729 28.8179 33.5452 28.851C33.4175 28.8841 33.3057 28.9171 33.21 28.9499C32.9858 28.9199 32.7615 28.8898 32.5372 28.8598C32.3129 28.8298 32.0727 28.7999 31.8164 28.7701C31.5273 28.6446 31.254 28.503 30.9967 28.3452C30.7713 28.1872 30.53 28.0453 30.2729 27.9195C30.0804 27.8572 29.9034 27.7467 29.742 27.5881C29.5806 27.4296 29.4512 27.2707 29.3538 27.1115C29.3213 27.0478 29.2729 27.0002 29.2086 26.9688C29.176 26.9051 29.1275 26.8415 29.0629 26.778C28.9664 26.7149 28.8699 26.6677 28.7737 26.6366C28.6771 26.5734 28.5804 26.4942 28.4836 26.3991C27.9685 26.0516 27.5012 25.6716 27.0816 25.2593C26.694 24.8466 26.4015 24.3372 26.2042 23.7309C26.0406 23.3163 25.8454 22.95 25.6186 22.6319C25.5535 22.5045 25.4725 22.3932 25.3757 22.298C25.3106 22.1706 25.2454 22.0432 25.1803 21.9157C25.2118 21.8515 25.2587 21.723 25.321 21.5305C25.2561 21.4351 25.1913 21.3396 25.1265 21.2442C25.0616 21.1487 25.0287 21.037 25.0275 20.909C25.0267 20.813 25.0099 20.7172 24.977 20.6215C24.9759 20.4935 24.9908 20.3653 25.0217 20.2371C25.0837 20.0125 25.0978 19.7884 25.0638 19.5647C25.0299 19.341 25.0279 19.117 25.0579 18.8927C25.0883 18.7004 25.0705 18.4926 25.0045 18.2691C24.9706 18.0454 25.0007 17.8372 25.0951 17.6443C25.1571 17.4198 25.2033 17.2114 25.2336 17.0191C25.2639 16.8268 25.3102 16.6344 25.3726 16.4419C25.4349 16.2493 25.4974 16.0728 25.56 15.9122C25.6223 15.7196 25.6847 15.5431 25.7473 15.3825C25.8097 15.19 25.872 14.9974 25.9343 14.8049C25.9966 14.6123 26.0908 14.4035 26.2169 14.1784C26.2163 14.1144 26.2156 14.0344 26.2148 13.9384C26.2139 13.8424 26.2294 13.7783 26.2611 13.746C26.3868 13.4889 26.4807 13.2481 26.5428 13.0235C26.6048 12.799 26.6189 12.5748 26.5849 12.3511C26.7115 12.19 26.8224 12.061 26.9176 11.9642C27.0127 11.8674 27.0917 11.7547 27.1546 11.6261C27.2172 11.4656 27.28 11.321 27.3428 11.1925C27.4374 11.0316 27.5322 10.8868 27.6271 10.758C27.7208 10.5011 27.8629 10.2759 28.0532 10.0822C28.1798 9.92111 28.2907 9.79214 28.3858 9.6953C28.4807 9.56647 28.5599 9.46977 28.6233 9.40522C28.7176 9.21239 28.7482 9.05211 28.7151 8.9244C28.6817 8.76468 28.6646 8.63683 28.6637 8.54083C28.7263 8.38028 28.7735 8.28386 28.8052 8.25159C28.9009 8.21875 28.9805 8.17005 29.044 8.1055C29.1394 8.04066 29.235 7.99183 29.3307 7.95899C29.5853 7.79676 29.8559 7.6344 30.1425 7.47189C30.4291 7.30938 30.7159 7.17887 31.0031 7.08036C31.2894 6.88586 31.5763 6.75535 31.8637 6.68884C32.1829 6.59005 32.502 6.49126 32.8212 6.39247C33.0771 6.39024 33.3331 6.388 33.5891 6.38577C33.8451 6.38353 34.0853 6.39744 34.3095 6.42748L34.7415 6.42371C35.0946 6.54864 35.4472 6.60956 35.7991 6.60649C36.1831 6.60314 36.551 6.58393 36.9027 6.54886C37.0627 6.54746 37.2227 6.54607 37.3827 6.54467C37.5744 6.511 37.7502 6.49346 37.9102 6.49206C38.0713 6.61866 38.2003 6.72954 38.2971 6.8247C38.4257 6.88758 38.5545 6.98246 38.6836 7.10934C38.7799 7.1405 38.8763 7.18766 38.9729 7.25082C39.0694 7.31398 39.1819 7.361 39.3101 7.39188C39.7584 7.41997 40.1596 7.56048 40.5139 7.8134C40.9001 8.06603 41.2543 8.31895 41.5765 8.57215C41.5771 8.63615 41.5779 8.73214 41.579 8.86014C41.5799 8.95613 41.5967 9.05199 41.6295 9.14771C41.6309 9.3077 41.7282 9.45086 41.9213 9.57718C42.0176 9.60834 42.1297 9.62336 42.2577 9.62225C42.3857 9.62113 42.514 9.65201 42.6425 9.71489C42.7076 9.84233 42.7889 9.98562 42.8863 10.1448C43.0157 10.3037 43.1291 10.4627 43.2265 10.6218C43.3556 10.7487 43.4847 10.8756 43.6138 11.0025C43.7429 11.1293 43.8402 11.2725 43.9056 11.4319C43.9701 11.4954 44.0188 11.575 44.0516 11.6707C44.1165 11.7661 44.1652 11.8457 44.1977 11.9094C44.2946 12.0046 44.3914 12.0997 44.4882 12.1949C44.5851 12.29 44.6502 12.4175 44.6836 12.5772C44.7495 12.8006 44.8475 13.0238 44.9774 13.2466C45.1074 13.4695 45.2055 13.7087 45.2717 13.9641C45.3045 14.0598 45.3534 14.1554 45.4182 14.2508C45.515 14.346 45.612 14.4572 45.7091 14.5843C45.7756 14.8717 45.8263 15.1753 45.8611 15.495C45.9279 15.8145 46.0265 16.1176 46.157 16.4045ZM39.4524 18.1911C39.4824 17.9668 39.4487 17.7751 39.3513 17.6159C39.2537 17.4248 39.22 17.233 39.2503 17.0408C39.2498 16.9768 39.2011 16.8972 39.1042 16.802C39.0717 16.7383 39.0546 16.6105 39.0529 16.4185C39.0843 16.3542 39.0996 16.2741 39.0988 16.1781C39.0977 16.0501 39.097 15.9701 39.0967 15.9381C38.8696 15.588 38.6589 15.2699 38.4643 14.9836C38.2696 14.6652 38.0589 14.3631 37.8324 14.077C37.8319 14.013 37.7996 13.9813 37.7356 13.9819C37.6713 13.9504 37.6067 13.887 37.5419 13.7916C36.9979 13.7963 36.4047 13.6575 35.7622 13.3751C35.3765 13.1864 34.9124 13.1745 34.3698 13.3392C34.3378 13.3395 34.29 13.3559 34.2263 13.3885C34.1945 13.4208 34.147 13.4692 34.0835 13.5337L33.8435 13.5358C33.3307 13.4443 32.9964 13.6392 32.8406 14.1206C32.7777 14.2492 32.699 14.3938 32.6044 14.5547C32.5415 14.6832 32.4948 14.8276 32.4642 14.9879C32.4333 15.1162 32.3705 15.2607 32.2759 15.4216C32.181 15.5504 32.1022 15.6791 32.0393 15.8077C31.9127 15.9688 31.8022 16.1457 31.7079 16.3386C31.6136 16.5314 31.5031 16.7084 31.3765 16.8695C31.3473 17.1897 31.2701 17.5104 31.1449 17.8315C31.0517 18.1524 30.9904 18.4569 30.9609 18.7452C31.0583 18.9043 31.1558 19.0795 31.2535 19.2706C31.3509 19.4298 31.4323 19.5891 31.4977 19.7485C31.6933 20.1628 31.7768 20.5621 31.7481 20.9464C31.7487 21.0104 31.7652 21.0742 31.7978 21.138C31.8304 21.2017 31.8629 21.2654 31.8955 21.3291C32.184 21.3906 32.4566 21.4522 32.7131 21.514C33.0017 21.5755 33.2743 21.6531 33.5312 21.7469C33.7557 21.8089 33.9801 21.8549 34.2044 21.885C34.4287 21.915 34.6524 21.8811 34.8755 21.7831L35.0195 21.7819C35.2761 21.8436 35.5162 21.8575 35.7399 21.8236C35.9954 21.7574 36.2668 21.691 36.5542 21.6245C36.7768 21.4625 36.9993 21.2846 37.2216 21.0906C37.4759 20.8964 37.7305 20.7342 37.9854 20.6039C38.2055 20.154 38.474 19.7517 38.7909 19.3969C39.1078 19.0421 39.3283 18.6402 39.4524 18.1911Z" fill="#BF2C2F"/>
<path d="M82.5431 20.2151C82.5133 20.4714 82.4838 20.7596 82.4546 21.0799C82.4571 21.3679 82.4436 21.656 82.4141 21.9443C82.3844 22.2006 82.3705 22.4407 82.3724 22.6647C82.3744 22.8887 82.3285 23.1291 82.2347 23.3859C82.1721 23.5465 82.1416 23.7227 82.1433 23.9147C82.1447 24.0747 82.1462 24.2507 82.1479 24.4427C82.1493 24.6027 82.1509 24.7787 82.1525 24.9707C82.1539 25.1307 82.1393 25.2908 82.1087 25.4511C82.079 25.7074 82.0333 25.9798 81.9719 26.2683C81.9421 26.5246 81.8963 26.781 81.8346 27.0375C81.8037 27.1658 81.7569 27.3102 81.6943 27.4708C81.6315 27.5993 81.5684 27.7119 81.5053 27.8084L81.1722 28.1474C80.9819 28.341 80.7585 28.407 80.5019 28.3452C80.3414 28.2826 80.181 28.236 80.0207 28.2054C79.8924 28.1745 79.7488 28.2238 79.59 28.3532C79.3646 28.1951 79.0915 28.0695 78.7706 27.9763L78.2427 27.9809C78.1787 27.9815 78.1145 27.966 78.0502 27.9346C77.986 27.9032 77.9218 27.8877 77.8578 27.8883C77.7621 27.9211 77.6664 27.9539 77.5707 27.9868C77.475 28.0196 77.3952 28.0523 77.3315 28.0849C77.1395 28.0866 77.0114 28.0717 76.9471 28.0402C76.5926 27.7553 76.4136 27.4049 76.4099 26.9889C76.3749 26.6372 76.3079 26.3017 76.2091 25.9826C76.1101 25.6314 76.011 25.2803 75.9119 24.9291C75.9737 24.6726 75.9873 24.4005 75.9528 24.1128C75.9503 23.8248 75.9638 23.5366 75.9933 23.2484C76.0239 23.0881 76.0225 22.9281 75.9891 22.7684C75.9874 22.5764 76.0499 22.3998 76.1765 22.2387C76.1731 21.8547 76.2173 21.4223 76.3092 20.9415C76.34 20.8133 76.3388 20.6693 76.3054 20.5095C76.2706 20.1898 76.2039 19.8864 76.1054 19.5993C76.0386 19.2798 75.924 18.9768 75.7615 18.6902C75.6964 18.5628 75.6154 18.4515 75.5186 18.3563C75.4534 18.2289 75.3408 18.1499 75.1805 18.1193C75.0517 18.0244 74.907 17.9456 74.7464 17.883C74.5858 17.8204 74.4413 17.7577 74.3127 17.6948C74.0896 17.7928 73.8982 17.8584 73.7384 17.8918C73.6742 17.8604 73.5939 17.8291 73.4976 17.7979C73.4013 17.7668 73.3211 17.7355 73.2568 17.704C73.2251 17.7363 73.1772 17.7527 73.1132 17.7533C73.0812 17.7536 73.0493 17.7699 73.0176 17.8021C72.8281 18.0918 72.5903 18.3339 72.3039 18.5284C72.1762 18.5615 72.0489 18.6426 71.9221 18.7717C71.7949 18.8688 71.6677 18.966 71.5406 19.0631C71.4454 19.1599 71.318 19.225 71.1583 19.2584C71.0305 19.2915 70.887 19.3408 70.7275 19.4062C70.6964 19.5025 70.6652 19.5987 70.6341 19.695C70.6349 19.791 70.6037 19.8873 70.5406 19.9838C70.5091 20.0481 70.4618 20.1285 70.3987 20.2251C70.3675 20.3214 70.3362 20.4016 70.3048 20.4659C70.1487 20.9153 70.0563 21.3321 70.0277 21.7164C69.9965 21.8126 69.9814 21.9088 69.9822 22.0048C70.0479 22.1962 70.0333 22.3563 69.9384 22.4852C69.8752 22.5817 69.8122 22.6943 69.7493 22.8228C69.7221 23.3671 69.6948 23.9114 69.6676 24.4556C69.6723 24.9996 69.6611 25.5437 69.6338 26.088C69.6355 26.28 69.6209 26.4401 69.59 26.5684C69.5277 26.7609 69.4655 26.9695 69.4035 27.194C69.3731 27.3863 69.3269 27.5947 69.2649 27.8193L68.2553 27.6361C68.0953 27.6375 67.9193 27.639 67.7273 27.6407C67.5353 27.6423 67.3432 27.628 67.1509 27.5977L66.1909 27.6061C65.9669 27.608 65.7429 27.61 65.519 27.6119C65.295 27.6139 65.0708 27.5999 64.8466 27.5698C64.4946 27.5729 64.2375 27.4471 64.0752 27.1925C63.9439 26.8097 63.8285 26.4266 63.7292 26.0435C63.6296 25.6284 63.5779 25.2128 63.5743 24.7968C63.5732 24.6688 63.5721 24.5408 63.571 24.4128C63.6018 24.2845 63.6489 24.1721 63.712 24.0756C63.7738 23.819 63.8038 23.5948 63.8022 23.4028C63.8325 23.2105 63.8467 23.0024 63.8447 22.7784C63.8088 22.3307 63.8047 21.8667 63.8326 21.3864C63.8924 20.9059 63.9043 20.4418 63.8684 19.9941C63.8353 19.8663 63.8183 19.7545 63.8175 19.6585C63.8166 19.5625 63.8158 19.4665 63.815 19.3705C63.7816 19.2108 63.7323 19.0672 63.6672 18.9398C63.6021 18.8123 63.585 18.6845 63.6159 18.5562C63.6145 18.3962 63.6131 18.2362 63.6117 18.0762C63.6423 17.9159 63.6569 17.7558 63.6555 17.5958C63.5584 17.4687 63.4614 17.3575 63.3646 17.2623C63.2997 17.1669 63.2027 17.0557 63.0736 16.9289C62.9776 16.9297 62.8656 16.9307 62.7376 16.9318C62.6414 16.9006 62.5291 16.8696 62.4008 16.8387C62.2723 16.7759 62.1116 16.6973 61.9187 16.6029C61.7579 16.5083 61.5972 16.4297 61.4367 16.3671C61.3081 16.3043 61.1636 16.2415 61.003 16.1789C60.8745 16.116 60.762 16.069 60.6658 16.0379C60.4106 16.1361 60.1397 16.2665 59.8531 16.429C59.7574 16.4618 59.6457 16.4948 59.518 16.5279C59.422 16.5287 59.3101 16.5457 59.1824 16.5788C59.0238 16.7402 58.8492 16.9017 58.6586 17.0634C58.5 17.2248 58.3256 17.4023 58.1353 17.596C58.0724 17.7245 58.0096 17.8691 57.947 18.0297C57.8842 18.1582 57.8214 18.3028 57.7588 18.4633C57.5707 18.913 57.4148 19.3783 57.291 19.8594C57.1989 20.3083 57.1552 20.8047 57.16 21.3486L57.1738 22.9326C57.1785 23.4766 57.1513 24.0208 57.092 24.5654C57.0325 25.0779 56.9571 25.6066 56.8659 26.1514C56.8358 26.3757 56.7737 26.5842 56.6793 26.777C56.617 26.9696 56.555 27.1942 56.4932 27.4507C56.3352 27.6761 56.161 27.8856 55.9707 28.0793C55.7801 28.241 55.5571 28.3549 55.3016 28.4211C54.8534 28.393 54.5494 28.3957 54.3897 28.4291C54.2617 28.4302 53.9744 28.5127 53.5278 28.6766C53.4001 28.7097 53.2724 28.7429 53.1446 28.776C53.0489 28.8088 52.9212 28.8419 52.7615 28.8753C52.6018 28.9087 52.4578 28.91 52.3295 28.8791C52.2012 28.8482 51.9767 28.7862 51.6559 28.693C51.5262 28.5021 51.3644 28.2955 51.1704 28.0732C51.0085 27.8506 50.8465 27.628 50.6846 27.4054C50.7157 27.3091 50.7309 27.213 50.7301 27.117C50.7612 27.0207 50.7925 26.9404 50.824 26.8762C50.8843 26.4596 50.8808 26.0596 50.8135 25.6762C50.7142 25.293 50.6308 24.9098 50.5635 24.5263C50.4961 24.1429 50.413 23.7916 50.3142 23.4725C50.312 23.2165 50.3582 23.0081 50.4528 22.8472C50.5794 22.6861 50.6576 22.4774 50.6873 22.2212C50.7494 21.9966 50.7792 21.7403 50.7766 21.4524C50.8058 21.1321 50.8352 20.8278 50.8647 20.5396C50.8619 20.2196 50.8592 19.9156 50.8567 19.6276C50.8539 19.3076 50.8834 19.0193 50.9452 18.7628C50.9432 18.5388 50.926 18.3949 50.8934 18.3312C50.7918 17.6921 50.8184 17.0678 50.9731 16.4585C51.0357 16.2979 51.0666 16.1696 51.0657 16.0736C51.0966 15.9454 51.1278 15.8491 51.1592 15.7848C51.2535 15.592 51.3804 15.4629 51.5398 15.3975C51.6993 15.3321 51.8424 15.2348 51.9693 15.1057C52.1268 14.8163 52.1563 14.5281 52.0578 14.2409C51.9912 13.9535 51.9406 13.6499 51.9058 13.3302C51.9684 13.1696 52.031 13.0091 52.0936 12.8485C52.1559 12.656 52.2023 12.4636 52.2326 12.2713C52.4863 12.0131 52.7079 11.7391 52.8974 11.4495C53.1189 11.1595 53.3245 10.8857 53.5143 10.6281C53.5777 10.5635 53.6087 10.4512 53.6073 10.2912C53.6059 10.1312 53.669 10.0187 53.7964 9.95357C53.8601 9.92101 53.924 9.90445 53.988 9.90389C54.0837 9.87106 54.1474 9.8385 54.1791 9.80622C54.7217 9.64148 55.2643 9.47674 55.8069 9.312C56.3495 9.14725 56.8758 8.95065 57.3858 8.72219C57.9595 8.46118 58.5344 8.32816 59.1104 8.32313C59.1744 8.32257 59.2384 8.32201 59.3024 8.32146C59.3661 8.2889 59.4459 8.2722 59.5419 8.27136C59.9565 8.10774 60.3717 8.00811 60.7874 7.97248C61.2351 7.93657 61.6829 7.91667 62.1309 7.91276L62.7069 7.90773C62.8672 7.93833 63.0276 7.98493 63.1881 8.04753C63.3804 8.07786 63.5571 8.15632 63.7182 8.28292C63.9753 8.40868 64.2164 8.53458 64.4415 8.66062C64.6984 8.75438 64.9709 8.81601 65.2592 8.84549C65.3875 8.87637 65.484 8.93953 65.5488 9.03497C65.6454 9.09813 65.7419 9.16129 65.8385 9.22445C65.9996 9.35105 66.1289 9.49393 66.2263 9.65308C66.3556 9.81196 66.485 9.97084 66.6144 10.1297C66.6796 10.2572 66.7288 10.4007 66.7622 10.5604C66.8273 10.6879 66.8766 10.8315 66.91 10.9912C67.0391 11.118 67.1682 11.2449 67.2973 11.3718C67.4264 11.4987 67.6028 11.5451 67.8265 11.5112C67.9851 11.3498 68.1439 11.2044 68.3027 11.075C68.4613 10.9136 68.6039 10.7524 68.7305 10.5913C68.8268 10.6224 68.9709 10.6372 69.1629 10.6355L70.3558 9.80905C70.4184 9.6485 70.4813 9.51995 70.5444 9.42339C70.6076 9.32684 70.6546 9.21442 70.6855 9.08615C70.8452 9.05275 71.0051 9.03536 71.165 9.03396C71.3248 9.00057 71.4845 8.96717 71.6442 8.93378C71.8671 8.80383 72.0742 8.70602 72.2657 8.64034C72.4568 8.54267 72.6478 8.429 72.8387 8.29933C72.9987 8.29793 73.1588 8.31254 73.3191 8.34314C73.5111 8.34146 73.6871 8.33993 73.8471 8.33853C73.9753 8.36941 74.1035 8.38429 74.2315 8.38318C74.3912 8.34978 74.5353 8.36453 74.6639 8.42741C75.081 8.55177 75.4977 8.62814 75.9139 8.65651C76.3299 8.65288 76.7462 8.68124 77.1627 8.74161C77.2273 8.80505 77.3556 8.83593 77.5475 8.83426L78.6123 9.833C78.6126 9.865 78.6289 9.89686 78.6611 9.92858C78.6934 9.9603 78.7097 9.99216 78.71 10.0242C79.0052 10.8536 79.4904 11.4414 80.1654 11.7875C80.198 11.8512 80.2148 11.9471 80.2159 12.0751C80.2488 12.1708 80.2815 12.2505 80.314 12.3142C80.5077 12.5046 80.7165 12.5987 80.9405 12.5968C81.3251 12.6574 81.5026 12.8319 81.4731 13.1202C81.4764 13.5042 81.5278 13.8877 81.6271 14.2709C81.7585 14.6537 81.8897 15.0206 82.0208 15.3715L82.3672 16.5685C82.3692 16.7925 82.3714 17.0485 82.3739 17.3365C82.4084 17.6242 82.4268 17.896 82.429 18.152C82.4302 18.28 82.4313 18.408 82.4324 18.536C82.4652 18.6317 82.4982 18.7434 82.5313 18.8711C82.631 19.2863 82.6349 19.7343 82.5431 20.2151Z" fill="#BF2C2F"/>
<path d="M107.842 15.8662C107.942 16.2493 107.929 16.6014 107.803 16.9225C107.741 17.0831 107.694 17.2435 107.664 17.4038C107.633 17.564 107.634 17.724 107.668 17.8838C107.7 17.9155 107.7 17.9635 107.669 18.0278C107.669 18.0598 107.67 18.1077 107.67 18.1717C107.545 18.4289 107.483 18.7014 107.485 18.9894C107.52 19.2771 107.554 19.5488 107.589 19.8045L107.114 20.4807L107.12 21.1047C107.056 21.1692 106.977 21.2499 106.882 21.3467C106.787 21.4116 106.659 21.5087 106.501 21.6381C106.438 21.8626 106.345 22.1035 106.219 22.3606C106.125 22.6174 106.047 22.8581 105.985 23.0826L105.989 23.5626C105.862 23.6917 105.703 23.8051 105.512 23.9028C105.321 24.0005 105.162 24.1459 105.036 24.339C104.909 24.4361 104.782 24.5172 104.654 24.5823C104.527 24.6474 104.383 24.7287 104.224 24.8261C104.161 24.8586 104.081 24.8753 103.985 24.8762C103.92 24.8447 103.856 24.8453 103.793 24.8778C103.313 24.882 103.075 25.1081 103.079 25.5561C102.729 25.7832 102.379 26.0262 102.029 26.2853C101.711 26.5441 101.377 26.803 101.028 27.0621C100.487 27.4828 99.7858 27.7769 98.9232 27.9445C98.6355 27.979 98.3643 28.0613 98.1094 28.1916C97.8542 28.2898 97.5829 28.3722 97.2955 28.4387C97.2315 28.4392 97.1514 28.4239 97.0551 28.3928C96.9588 28.3616 96.8788 28.3623 96.8151 28.3949C96.4314 28.4302 96.0311 28.4017 95.6143 28.3093C95.486 28.2785 95.358 28.2796 95.2303 28.3127C95.1026 28.3458 94.9909 28.3788 94.8952 28.4116C94.6709 28.3816 94.4466 28.3515 94.2224 28.3215C93.9981 28.2914 93.7578 28.2615 93.5015 28.2318C93.2124 28.1063 92.9392 27.9647 92.6818 27.8069C92.4564 27.6489 92.2152 27.507 91.9581 27.3812C91.7655 27.3189 91.5885 27.2084 91.4272 27.0498C91.2658 26.8912 91.1364 26.7324 91.039 26.5732C91.0064 26.5095 90.958 26.4619 90.8937 26.4305C90.8612 26.3667 90.8126 26.3032 90.7481 26.2397C90.6515 26.1766 90.5551 26.1294 90.4588 26.0982C90.3623 26.0351 90.2656 25.9559 90.1687 25.8608C89.6537 25.5132 89.1863 25.1333 88.7667 24.721C88.3791 24.3083 88.0867 23.7989 87.8894 23.1926C87.7257 22.778 87.5305 22.4117 87.3037 22.0936C87.2386 21.9662 87.1577 21.8549 87.0608 21.7597C86.9957 21.6323 86.9306 21.5049 86.8655 21.3774C86.8969 21.3131 86.9438 21.1847 87.0061 20.9922C86.9413 20.8967 86.8765 20.8013 86.8116 20.7059C86.7468 20.6104 86.7138 20.4987 86.7127 20.3707C86.7119 20.2747 86.695 20.1789 86.6622 20.0831C86.6611 19.9552 86.6759 19.827 86.7068 19.6987C86.7689 19.4742 86.7829 19.2501 86.749 19.0264C86.715 18.8026 86.7131 18.5786 86.7431 18.3544C86.7734 18.1621 86.7556 17.9543 86.6897 17.7308C86.6557 17.5071 86.6859 17.2988 86.7802 17.106C86.8422 16.8815 86.8884 16.673 86.9188 16.4808C86.9491 16.2885 86.9954 16.0961 87.0577 15.9035C87.12 15.711 87.1825 15.5344 87.2451 15.3739C87.3074 15.1813 87.3699 15.0048 87.4325 14.8442C87.4948 14.6517 87.5571 14.4591 87.6195 14.2666C87.6818 14.074 87.776 13.8652 87.902 13.6401C87.9014 13.5761 87.9007 13.4961 87.8999 13.4001C87.8991 13.3041 87.9145 13.24 87.9462 13.2077C88.072 12.9506 88.1659 12.7097 88.2279 12.4852C88.29 12.2606 88.304 12.0365 88.2701 11.8128C88.3967 11.6517 88.5075 11.5227 88.6027 11.4259C88.6979 11.329 88.7769 11.2164 88.8398 11.0878C88.9024 10.9272 88.9651 10.7827 89.028 10.6541C89.1226 10.4933 89.2173 10.3485 89.3122 10.2196C89.406 9.96282 89.548 9.73757 89.7383 9.5439C89.8649 9.38279 89.9758 9.25382 90.071 9.15698C90.1658 9.02815 90.245 8.93146 90.3084 8.8669C90.4028 8.67407 90.4334 8.5138 90.4002 8.38608C90.3669 8.22637 90.3497 8.09851 90.3489 8.00251C90.4115 7.84196 90.4587 7.74555 90.4904 7.71327C90.5861 7.68043 90.6657 7.63174 90.7291 7.56718C90.8245 7.50234 90.9201 7.45351 91.0158 7.42067C91.2704 7.25844 91.541 7.09608 91.8276 6.93357C92.1142 6.77106 92.4011 6.64055 92.6882 6.54204C92.9746 6.34754 93.2614 6.21703 93.5489 6.15052C93.868 6.05173 94.1872 5.95294 94.5063 5.85415C94.7623 5.85192 95.0183 5.84968 95.2743 5.84745C95.5303 5.84522 95.7704 5.85912 95.9947 5.88917L96.4267 5.8854C96.7798 6.01032 97.1323 6.07124 97.4843 6.06817C97.8683 6.06482 98.2361 6.04561 98.5878 6.01054C98.7478 6.00914 98.9078 6.00775 99.0678 6.00635C99.2595 5.97268 99.4354 5.95514 99.5954 5.95375C99.7565 6.08035 99.8855 6.19122 99.9823 6.28638C100.111 6.34926 100.24 6.44414 100.369 6.57102C100.465 6.60218 100.561 6.64934 100.658 6.7125C100.755 6.77566 100.867 6.82268 100.995 6.85356C101.444 6.88165 101.845 7.02216 102.199 7.27508C102.585 7.52772 102.939 7.78063 103.262 8.03383C103.262 8.09783 103.263 8.19382 103.264 8.32182C103.265 8.41782 103.282 8.51367 103.315 8.60939C103.316 8.76939 103.413 8.91254 103.606 9.03886C103.703 9.07002 103.815 9.08504 103.943 9.08393C104.071 9.08281 104.199 9.11369 104.328 9.17657C104.393 9.30401 104.474 9.44731 104.571 9.60646C104.701 9.76534 104.814 9.92436 104.912 10.0835C105.041 10.2104 105.17 10.3373 105.299 10.4641C105.428 10.591 105.525 10.7342 105.591 10.8936C105.655 10.9571 105.704 11.0366 105.737 11.1324C105.802 11.2278 105.85 11.3074 105.883 11.3711C105.98 11.4662 106.077 11.5614 106.173 11.6566C106.27 11.7517 106.335 11.8792 106.369 12.0389C106.435 12.2623 106.533 12.4855 106.663 12.7083C106.793 12.9312 106.891 13.1704 106.957 13.4258C106.99 13.5215 107.039 13.6171 107.103 13.7125C107.2 13.8077 107.297 13.9188 107.394 14.046C107.461 14.3334 107.511 14.637 107.546 14.9567C107.613 15.2761 107.712 15.5793 107.842 15.8662ZM101.138 17.6527C101.168 17.4285 101.134 17.2368 101.036 17.0776C100.939 16.8864 100.905 16.6947 100.935 16.5025C100.935 16.4385 100.886 16.3589 100.789 16.2637C100.757 16.2 100.74 16.0721 100.738 15.8802C100.769 15.8159 100.785 15.7357 100.784 15.6397C100.783 15.5117 100.782 15.4318 100.782 15.3998C100.555 15.0497 100.344 14.7315 100.149 14.4452C99.9547 14.1269 99.7441 13.8247 99.5176 13.5387C99.517 13.4747 99.4847 13.443 99.4207 13.4436C99.3564 13.4121 99.2919 13.3487 99.2271 13.2532C98.6831 13.258 98.0898 13.1192 97.4474 12.8368C97.0617 12.6481 96.5976 12.6362 96.055 12.8009C96.023 12.8012 95.9751 12.8176 95.9114 12.8502C95.8797 12.8824 95.8321 12.9309 95.7687 12.9954L95.5287 12.9975C95.0159 12.906 94.6816 13.1009 94.5257 13.5823C94.4629 13.7108 94.3841 13.8555 94.2895 14.0164C94.2266 14.1449 94.1799 14.2893 94.1493 14.4496C94.1184 14.5779 94.0557 14.7224 93.9611 14.8833C93.8662 15.0121 93.7873 15.1408 93.7244 15.2693C93.5978 15.4304 93.4874 15.6074 93.3931 15.8002C93.2987 15.9931 93.1883 16.17 93.0617 16.3312C93.0325 16.6514 92.9553 16.9721 92.8301 17.2932C92.7369 17.614 92.6755 17.9186 92.646 18.2069C92.7434 18.366 92.841 18.5412 92.9386 18.7323C93.036 18.8915 93.1174 19.0508 93.1828 19.2102C93.3784 19.6245 93.4619 20.0238 93.4333 20.4081C93.4338 20.4721 93.4504 20.5359 93.4829 20.5996C93.5155 20.6634 93.5481 20.7271 93.5806 20.7908C93.8692 20.8523 94.1417 20.9139 94.3983 20.9757C94.6868 21.0372 94.9595 21.1148 95.2163 21.2085C95.4409 21.2706 95.6653 21.3166 95.8896 21.3467C96.1138 21.3767 96.3375 21.3428 96.5607 21.2448L96.7047 21.2436C96.9612 21.3053 97.2014 21.3192 97.4251 21.2853C97.6805 21.219 97.9519 21.1527 98.2394 21.0862C98.462 20.9242 98.6844 20.7463 98.9067 20.5523C99.161 20.3581 99.4156 20.1959 99.6705 20.0656C99.8906 19.6157 100.159 19.2133 100.476 18.8586C100.793 18.5038 101.013 18.1018 101.138 17.6527Z" fill="#BF2C2F"/>
<path d="M144.228 19.6768C144.198 19.933 144.169 20.2213 144.14 20.5416C144.142 20.8296 144.129 21.1177 144.099 21.406C144.07 21.6622 144.056 21.9024 144.058 22.1264C144.06 22.3504 144.014 22.5908 143.92 22.8476C143.857 23.0081 143.827 23.1844 143.828 23.3764C143.83 23.5364 143.831 23.7124 143.833 23.9044C143.834 24.0644 143.836 24.2404 143.838 24.4324C143.839 24.5924 143.824 24.7525 143.794 24.9128C143.764 25.169 143.718 25.4414 143.657 25.73C143.627 25.9863 143.581 26.2427 143.52 26.4992C143.489 26.6275 143.442 26.7719 143.379 26.9325C143.317 27.061 143.254 27.1736 143.19 27.2701L142.857 27.609C142.667 27.8027 142.444 27.8687 142.187 27.8069C142.027 27.7443 141.866 27.6977 141.706 27.6671C141.578 27.6362 141.434 27.6855 141.275 27.8149C141.05 27.6568 140.777 27.5312 140.456 27.438L139.928 27.4426C139.864 27.4432 139.8 27.4277 139.735 27.3963C139.671 27.3648 139.607 27.3494 139.543 27.35C139.447 27.3828 139.352 27.4156 139.256 27.4485C139.16 27.4813 139.08 27.514 139.017 27.5466C138.825 27.5482 138.697 27.5334 138.632 27.5019C138.278 27.217 138.099 26.8665 138.095 26.4506C138.06 26.0989 137.993 25.7634 137.894 25.4443C137.795 25.0931 137.696 24.742 137.597 24.3908C137.659 24.1343 137.672 23.8621 137.638 23.5744C137.635 23.2864 137.649 22.9983 137.678 22.7101C137.709 22.5498 137.708 22.3898 137.674 22.2301C137.673 22.0381 137.735 21.8615 137.862 21.7004C137.858 21.3164 137.902 20.884 137.994 20.4032C138.025 20.2749 138.024 20.1309 137.991 19.9712C137.956 19.6515 137.889 19.3481 137.791 19.0609C137.724 18.7415 137.609 18.4385 137.447 18.1519C137.382 18.0245 137.301 17.9132 137.204 17.818C137.139 17.6906 137.026 17.6116 136.866 17.5809C136.737 17.4861 136.592 17.4073 136.432 17.3447C136.271 17.2821 136.126 17.2194 135.998 17.1565C135.775 17.2545 135.583 17.3201 135.424 17.3535C135.359 17.3221 135.279 17.2908 135.183 17.2596C135.086 17.2285 135.006 17.1972 134.942 17.1657C134.91 17.198 134.862 17.2144 134.798 17.215C134.766 17.2153 134.735 17.2315 134.703 17.2638C134.513 17.5535 134.275 17.7956 133.989 17.9901C133.861 18.0232 133.734 18.1043 133.607 18.2334C133.48 18.3305 133.353 18.4276 133.226 18.5247C133.131 18.6216 133.003 18.6867 132.843 18.7201C132.716 18.7532 132.572 18.8025 132.413 18.8679C132.382 18.9641 132.35 19.0604 132.319 19.1567C132.32 19.2527 132.289 19.349 132.226 19.4455C132.194 19.5098 132.147 19.5902 132.084 19.6868C132.053 19.783 132.021 19.8633 131.99 19.9276C131.834 20.377 131.741 20.7938 131.713 21.1781C131.682 21.2743 131.667 21.3705 131.667 21.4665C131.733 21.6579 131.718 21.818 131.624 21.9469C131.56 22.0434 131.497 22.156 131.434 22.2845C131.407 22.8288 131.38 23.373 131.353 23.9173C131.357 24.4613 131.346 25.0054 131.319 25.5497C131.321 25.7416 131.306 25.9018 131.275 26.0301C131.213 26.2226 131.151 26.4312 131.089 26.6557C131.058 26.848 131.012 27.0564 130.95 27.2809L129.94 27.0977C129.78 27.0991 129.604 27.1007 129.412 27.1024C129.22 27.104 129.028 27.0897 128.836 27.0594L127.876 27.0678C127.652 27.0697 127.428 27.0717 127.204 27.0736C126.98 27.0756 126.756 27.0615 126.532 27.0315C126.18 27.0346 125.923 26.9088 125.76 26.6542C125.629 26.2713 125.514 25.8883 125.414 25.5052C125.315 25.09 125.263 24.6745 125.259 24.2585C125.258 24.1305 125.257 24.0025 125.256 23.8745C125.287 23.7462 125.334 23.6338 125.397 23.5373C125.459 23.2807 125.489 23.0564 125.487 22.8644C125.518 22.6722 125.532 22.464 125.53 22.24C125.494 21.7923 125.49 21.3284 125.518 20.8481C125.578 20.3676 125.589 19.9034 125.554 19.4557C125.52 19.328 125.503 19.2162 125.503 19.1202C125.502 19.0242 125.501 18.9282 125.5 18.8322C125.467 18.6725 125.417 18.5289 125.352 18.4015C125.287 18.274 125.27 18.1462 125.301 18.0179C125.3 17.8579 125.298 17.6979 125.297 17.5379C125.327 17.3776 125.342 17.2175 125.341 17.0575C125.244 16.9303 125.147 16.8192 125.05 16.724C124.985 16.6286 124.888 16.5174 124.759 16.3906C124.663 16.3914 124.551 16.3924 124.423 16.3935C124.327 16.3623 124.214 16.3313 124.086 16.3004C123.957 16.2375 123.797 16.1589 123.604 16.0646C123.443 15.97 123.282 15.8914 123.122 15.8288C122.993 15.7659 122.849 15.7032 122.688 15.6406C122.56 15.5777 122.447 15.5307 122.351 15.4995C122.096 15.5978 121.825 15.7281 121.538 15.8906C121.443 15.9235 121.331 15.9565 121.203 15.9896C121.107 15.9904 120.995 16.0074 120.868 16.0405C120.709 16.2019 120.534 16.3634 120.344 16.5251C120.185 16.6865 120.011 16.864 119.82 17.0577C119.758 17.1862 119.695 17.3308 119.632 17.4913C119.569 17.6199 119.507 17.7644 119.444 17.925C119.256 18.3747 119.1 18.84 118.976 19.3211C118.884 19.77 118.84 20.2663 118.845 20.8103L118.859 22.3943C118.864 22.9382 118.836 23.4825 118.777 24.027C118.718 24.5396 118.642 25.0683 118.551 25.6131C118.521 25.8373 118.459 26.0459 118.364 26.2387C118.302 26.4313 118.24 26.6558 118.178 26.9124C118.02 27.1378 117.846 27.3473 117.656 27.541C117.465 27.7026 117.242 27.8166 116.987 27.8828C116.539 27.8547 116.235 27.8574 116.075 27.8908C115.947 27.8919 115.66 27.9744 115.213 28.1383C115.085 28.1714 114.958 28.2045 114.83 28.2377C114.734 28.2705 114.606 28.3036 114.447 28.337C114.287 28.3704 114.143 28.3717 114.015 28.3408C113.886 28.3099 113.662 28.2478 113.341 28.1546C113.211 27.9638 113.05 27.7572 112.856 27.5349C112.694 27.3123 112.532 27.0897 112.37 26.8671C112.401 26.7708 112.416 26.6747 112.415 26.5787C112.446 26.4824 112.478 26.4021 112.509 26.3378C112.569 25.9213 112.566 25.5213 112.499 25.1379C112.399 24.7547 112.316 24.3714 112.249 23.988C112.181 23.6046 112.098 23.2533 111.999 22.9341C111.997 22.6782 112.043 22.4697 112.138 22.3089C112.265 22.1478 112.343 21.9391 112.372 21.6828C112.435 21.4583 112.464 21.202 112.462 20.914C112.491 20.5938 112.52 20.2895 112.55 20.0012C112.547 19.6812 112.544 19.3773 112.542 19.0893C112.539 18.7693 112.569 18.481 112.63 18.2245C112.628 18.0005 112.611 17.8566 112.579 17.7929C112.477 17.1538 112.504 16.5295 112.658 15.9201C112.721 15.7596 112.752 15.6313 112.751 15.5353C112.782 15.407 112.813 15.3108 112.844 15.2465C112.939 15.0537 113.066 14.9245 113.225 14.8591C113.384 14.7938 113.528 14.6965 113.654 14.5674C113.812 14.278 113.841 13.9897 113.743 13.7026C113.676 13.4152 113.626 13.1116 113.591 12.7919C113.654 12.6313 113.716 12.4708 113.779 12.3102C113.841 12.1177 113.887 11.9253 113.918 11.733C114.171 11.4748 114.393 11.2008 114.583 10.9111C114.804 10.6212 115.01 10.3474 115.199 10.0897C115.263 10.0252 115.294 9.9129 115.292 9.75291C115.291 9.59292 115.354 9.48036 115.482 9.41525C115.545 9.38269 115.609 9.36613 115.673 9.36557C115.769 9.33274 115.833 9.30018 115.864 9.2679C116.407 9.10316 116.949 8.93842 117.492 8.77368C118.035 8.60894 118.561 8.41234 119.071 8.18388C119.645 7.92286 120.22 7.78984 120.796 7.78481C120.86 7.78425 120.924 7.7837 120.988 7.78314C121.051 7.75058 121.131 7.73388 121.227 7.73304C121.642 7.56942 122.057 7.46979 122.473 7.43417C122.92 7.39826 123.368 7.37835 123.816 7.37444L124.392 7.36941C124.552 7.40001 124.713 7.44662 124.873 7.50922C125.066 7.53954 125.242 7.618 125.403 7.7446C125.66 7.87036 125.902 7.99626 126.127 8.1223C126.384 8.21606 126.656 8.27769 126.944 8.30717C127.073 8.33806 127.169 8.40122 127.234 8.49665C127.331 8.55981 127.427 8.62297 127.524 8.68613C127.685 8.81273 127.814 8.95561 127.911 9.11477C128.041 9.27364 128.17 9.43252 128.3 9.5914C128.365 9.71883 128.414 9.86241 128.447 10.0221C128.512 10.1496 128.562 10.2931 128.595 10.4529C128.724 10.5797 128.853 10.7066 128.982 10.8335C129.112 10.9604 129.288 11.0068 129.512 10.9729C129.67 10.8115 129.829 10.6661 129.988 10.5367C130.146 10.3753 130.289 10.2141 130.416 10.0529C130.512 10.0841 130.656 10.0989 130.848 10.0972L132.041 9.27074C132.104 9.11018 132.166 8.98163 132.23 8.88507C132.293 8.78852 132.34 8.67611 132.371 8.54783C132.53 8.51444 132.69 8.49704 132.85 8.49564C133.01 8.46225 133.17 8.42885 133.329 8.39546C133.552 8.26551 133.759 8.1677 133.951 8.10203C134.142 8.00435 134.333 7.89068 134.524 7.76101C134.684 7.75962 134.844 7.77422 135.004 7.80482C135.196 7.80314 135.372 7.80161 135.532 7.80021C135.661 7.83109 135.789 7.84598 135.917 7.84486C136.076 7.81146 136.22 7.82621 136.349 7.88909C136.766 8.01345 137.183 8.08982 137.599 8.11819C138.015 8.11456 138.431 8.14293 138.848 8.20329C138.912 8.26673 139.041 8.29762 139.233 8.29594L140.297 9.29469C140.298 9.32668 140.314 9.35854 140.346 9.39026C140.379 9.42198 140.395 9.45384 140.395 9.48584C140.69 10.3153 141.176 10.9031 141.851 11.2492C141.883 11.3129 141.9 11.4088 141.901 11.5368C141.934 11.6325 141.967 11.7122 141.999 11.7759C142.193 11.9662 142.402 12.0604 142.626 12.0585C143.01 12.1191 143.188 12.2936 143.158 12.5818C143.162 12.9658 143.213 13.3494 143.312 13.7325C143.444 14.1154 143.575 14.4823 143.706 14.8332L144.052 16.0302C144.054 16.2542 144.057 16.5102 144.059 16.7981C144.094 17.0859 144.112 17.3577 144.114 17.6137C144.115 17.7417 144.116 17.8697 144.118 17.9977C144.15 18.0934 144.183 18.2051 144.216 18.3328C144.316 18.748 144.32 19.196 144.228 19.6768Z" fill="#BF2C2F"/>
<path d="M171.541 26.0627C171.639 26.2858 171.673 26.4935 171.643 26.6858C171.612 26.8781 171.55 27.0706 171.456 27.2635C171.424 27.2957 171.36 27.3443 171.265 27.4091C171.169 27.442 171.09 27.4907 171.026 27.5552C170.898 27.5883 170.787 27.6053 170.691 27.6062C170.595 27.607 170.483 27.64 170.355 27.7051C169.876 27.8053 169.59 28.0638 169.498 28.4806C169.467 28.5449 169.403 28.6254 169.308 28.7223C169.085 28.7562 168.925 28.7896 168.829 28.8224C168.734 28.8873 168.543 29.001 168.256 29.1635C168.032 29.1654 167.808 29.1994 167.585 29.2653C167.361 29.3313 167.155 29.4611 166.964 29.6548C166.9 29.6553 166.852 29.6557 166.82 29.656C166.789 29.6883 166.741 29.7047 166.677 29.7053C166.549 29.7704 166.405 29.7396 166.244 29.613C166.083 29.5184 166.002 29.3911 166.001 29.2311L165.998 28.9432C165.869 28.8803 165.709 28.8817 165.518 28.9473C165.359 29.0127 165.23 28.9499 165.132 28.7587L165.126 28.0387C165.03 27.9756 164.933 27.9284 164.837 27.8973C164.772 27.8338 164.692 27.7865 164.596 27.7554C164.465 27.5005 164.319 27.2297 164.156 26.9432C163.994 26.6566 163.832 26.402 163.67 26.1794C163.541 26.0845 163.429 26.0535 163.333 26.0863C163.237 26.1191 163.158 26.1678 163.094 26.2324C163.031 26.2969 162.984 26.3774 162.952 26.4736C162.921 26.5379 162.873 26.6023 162.81 26.6669C162.747 26.7314 162.699 26.8119 162.668 26.9081C162.637 27.0044 162.59 27.0848 162.526 27.1494C162.112 27.345 161.697 27.5246 161.283 27.6883C160.868 27.8199 160.469 27.9354 160.086 28.0347C159.863 28.1967 159.641 28.3426 159.418 28.4726C159.195 28.6025 158.988 28.7323 158.797 28.862C158.605 28.8957 158.414 28.9453 158.222 29.011C158.031 29.0767 157.855 29.1262 157.696 29.1596C157.503 29.0653 157.31 29.035 157.119 29.0686C156.959 29.134 156.752 29.1999 156.496 29.2661C156.208 29.2046 155.903 29.1273 155.582 29.0341C155.262 28.9728 154.925 28.9118 154.573 28.8509C154.477 28.8837 154.381 28.9005 154.285 28.9014C154.189 28.9022 154.109 28.9189 154.046 28.9515C153.917 28.8886 153.805 28.8256 153.708 28.7624C153.643 28.699 153.547 28.6518 153.419 28.6209C153.258 28.5583 153.114 28.5596 152.987 28.6247C152.859 28.6898 152.716 28.7551 152.556 28.8205C152.396 28.7579 152.219 28.7114 152.027 28.6811C151.835 28.6827 151.643 28.6684 151.451 28.6381C151.289 28.4795 151.144 28.3368 151.015 28.2099C150.918 28.0827 150.853 27.9233 150.819 27.7316C150.754 27.6681 150.69 27.6207 150.626 27.5893C150.561 27.5258 150.513 27.4782 150.48 27.4465C150.348 26.9997 150.201 26.6169 150.038 26.2983C149.582 25.3423 149.269 24.289 149.099 23.1384C149.034 23.075 148.97 23.0115 148.905 22.9481C148.84 22.8527 148.759 22.7574 148.663 22.6622C148.628 22.3745 148.594 22.1028 148.559 21.8471C148.525 21.5594 148.474 21.2558 148.407 20.9364C148.47 20.7438 148.5 20.5675 148.499 20.4075C148.432 20.0881 148.366 19.8007 148.299 19.5452C148.424 19.1601 148.549 18.775 148.673 18.3899C148.83 18.0046 148.874 17.6042 148.807 17.1887C148.87 17.0602 148.949 16.9475 149.044 16.8506C149.139 16.7218 149.218 16.6091 149.281 16.5126C149.566 16.1901 149.771 15.8203 149.895 15.4032C149.988 15.0503 150.146 14.745 150.367 14.487C150.621 14.2288 150.891 14.0184 151.178 13.8559C151.528 13.6928 151.863 13.5299 152.182 13.3671C152.532 13.1721 152.866 13.0091 153.185 12.8784C153.249 12.8778 153.329 12.8931 153.426 12.9243C153.554 12.9231 153.65 12.9063 153.713 12.8737C154.288 12.7727 154.784 12.7364 155.2 12.7648C155.393 12.7951 155.585 12.7934 155.776 12.7597C155.968 12.7261 156.144 12.7085 156.304 12.7071L157.31 12.5063C157.503 12.5367 157.695 12.583 157.887 12.6453C158.08 12.7076 158.272 12.69 158.463 12.5923C158.527 12.5917 158.575 12.6073 158.607 12.639C158.671 12.6385 158.719 12.6381 158.751 12.6378C158.912 12.7004 159.057 12.7791 159.186 12.874C159.314 12.9369 159.458 12.9676 159.618 12.9662C159.971 13.0271 160.194 12.9612 160.289 12.7684C160.252 12.2247 160.201 11.8731 160.135 11.7137C160.102 11.5539 160.004 11.2988 159.841 10.9482C159.743 10.757 159.677 10.5656 159.644 10.3739C159.61 10.1502 159.576 9.94248 159.542 9.75076C159.509 9.62305 159.476 9.51133 159.443 9.41561C159.442 9.28762 159.377 9.16018 159.248 9.0333C158.831 8.90894 158.318 8.81741 157.71 8.75872L157.422 8.76123C157.135 8.89174 156.831 8.95839 156.511 8.96118C156.191 8.96397 155.856 8.99891 155.504 9.06598C155.28 9.09993 155.041 9.16602 154.786 9.26425C154.563 9.3622 154.323 9.44429 154.068 9.51052C153.813 9.64075 153.557 9.57899 153.298 9.32523C153.2 9.03808 153.149 8.75051 153.147 8.46252C153.176 8.14226 153.205 7.82199 153.234 7.50172C153.168 7.27829 153.086 7.023 152.988 6.73585C152.889 6.4167 152.838 6.04913 152.834 5.63314L152.879 5.29674C152.847 5.23302 152.782 5.16958 152.686 5.10642C152.621 5.04298 152.557 4.99554 152.492 4.9641C152.395 4.86894 152.379 4.77309 152.442 4.67653C152.441 4.58053 152.488 4.53212 152.584 4.53128C152.84 4.46505 153.079 4.41496 153.303 4.381C153.527 4.34705 153.751 4.3131 153.974 4.27914L154.545 3.69814C154.609 3.66558 154.689 3.64888 154.785 3.64804C155.522 3.76962 156.05 3.81301 156.37 3.77822C156.722 3.74315 157.249 3.61054 157.951 3.38041C158.303 3.40934 158.639 3.4544 158.96 3.51561C159.312 3.57653 159.665 3.58946 160.016 3.55439C160.113 3.64955 160.21 3.74471 160.307 3.83987C160.435 3.90275 160.564 3.98163 160.693 4.07651C160.852 4.01111 161.012 3.96172 161.172 3.92832C161.331 3.86293 161.475 3.81367 161.602 3.78056C161.795 3.90688 162.004 4.03306 162.23 4.1591C162.39 4.1897 162.518 4.15658 162.613 4.05975C162.74 3.96264 162.867 3.91352 162.995 3.91241C163.284 3.94189 163.509 4.08393 163.671 4.33852C163.865 4.56084 164.075 4.75102 164.3 4.90906C164.493 5.03538 164.671 5.19383 164.832 5.38443C165.026 5.57475 165.22 5.74907 165.413 5.90738C165.478 6.00282 165.543 6.09826 165.607 6.1937C165.672 6.28914 165.721 6.38471 165.754 6.48043C165.915 6.60703 166.06 6.71777 166.189 6.81265C166.317 6.87553 166.43 6.97055 166.527 7.09771C166.689 7.2243 166.849 7.3189 167.01 7.38151C167.202 7.44383 167.347 7.55457 167.445 7.71372C167.51 7.87316 167.576 8.04859 167.641 8.24003C167.707 8.39946 167.82 8.54248 167.981 8.66908C168.08 8.98823 168.179 9.32338 168.278 9.67453C168.377 9.99368 168.396 10.3295 168.335 10.6821C168.336 10.8421 168.321 10.9862 168.291 11.1145C168.356 11.2739 168.405 11.4495 168.439 11.6412C168.473 11.8329 168.522 12.0085 168.588 12.1679L168.59 12.4079C168.591 12.5039 168.576 12.616 168.545 12.7443C168.546 12.8403 168.562 12.9202 168.595 12.9839C168.661 13.1753 168.742 13.3186 168.839 13.4138C168.84 13.6058 168.762 13.7825 168.603 13.9439C168.54 13.9764 168.46 14.0091 168.364 14.0419C168.268 14.0748 168.189 14.1235 168.125 14.188C167.743 14.4154 167.698 14.7038 167.989 15.0533C168.021 15.085 168.07 15.1486 168.135 15.244C168.231 15.3072 168.296 15.3866 168.329 15.4823C168.362 15.61 168.379 15.7539 168.38 15.9139C168.382 16.0419 168.399 16.1857 168.432 16.3454C168.309 16.9545 168.075 17.5326 167.727 18.0797C167.827 18.5268 167.975 18.9575 168.171 19.3718C168.398 19.7859 168.594 20.2162 168.758 20.6628C168.919 20.7574 169.048 20.8522 169.144 20.9474C169.241 21.0426 169.354 21.1216 169.482 21.1845C169.515 21.2802 169.532 21.344 169.532 21.376C169.564 21.4077 169.581 21.4556 169.581 21.5196C169.584 21.8396 169.619 22.1593 169.686 22.4787C169.785 22.7979 169.899 23.1009 170.03 23.3878C170.16 23.6746 170.291 23.9455 170.421 24.2004C170.551 24.4553 170.713 24.7098 170.907 24.9642C171.069 25.0908 171.198 25.2656 171.296 25.4888C171.394 25.7119 171.476 25.9032 171.541 26.0627ZM160.973 19.6747C160.777 19.1964 160.534 18.8785 160.245 18.721C159.891 18.5641 159.665 18.358 159.567 18.1029C159.534 17.9751 159.469 17.8957 159.373 17.8645C159.277 17.8334 159.181 17.8022 159.084 17.7711C158.956 17.7722 158.796 17.7896 158.605 17.8233C158.445 17.8246 158.285 17.842 158.125 17.8754C157.933 17.8771 157.741 17.8468 157.548 17.7845C157.388 17.7219 157.227 17.6753 157.067 17.6447C156.779 17.6472 156.508 17.7295 156.253 17.8918C156.126 17.9889 156.015 18.0859 155.92 18.1827C155.824 18.2475 155.729 18.3444 155.634 18.4732L155.02 19.6306C155.086 19.822 155.168 19.9973 155.265 20.1565C155.362 20.2836 155.364 20.4756 155.27 20.7325C155.336 21.0199 155.403 21.3233 155.47 21.6428C155.568 21.9299 155.699 22.2168 155.861 22.5034C155.926 22.5668 155.974 22.5984 156.006 22.5981C156.359 22.659 156.711 22.688 157.063 22.6849C157.415 22.6818 157.751 22.6629 158.071 22.6281C158.199 22.627 158.294 22.6101 158.358 22.5776C158.708 22.3825 159.139 22.2028 159.65 22.0383C159.841 22.0046 160.016 21.8591 160.174 21.6017C160.299 21.3126 160.425 21.0075 160.55 20.6864C160.675 20.3333 160.816 19.996 160.973 19.6747ZM150.866 27.6352C150.866 27.6352 150.85 27.6353 150.818 27.6356C150.818 27.6356 150.818 27.6676 150.819 27.7316C150.882 27.667 150.898 27.6349 150.866 27.6352Z" fill="#BF2C2F"/>
<path d="M191.373 24.7856C191.216 25.1069 191.075 25.4282 190.949 25.7493C190.824 26.0704 190.683 26.3916 190.526 26.713L189.526 27.6818C188.924 28.3591 188.208 28.7653 187.377 28.9006C186.961 28.9682 186.53 28.988 186.081 28.9599C185.665 28.9635 185.233 28.9033 184.784 28.7792C184.527 28.7175 184.254 28.6238 183.965 28.4984C183.708 28.4046 183.451 28.2948 183.194 28.1691C183.001 28.0747 182.793 28.0126 182.569 27.9825C182.344 27.9205 182.104 27.8746 181.847 27.8448C181.751 27.7816 181.638 27.7186 181.51 27.6557C181.381 27.5609 181.236 27.4661 181.075 27.3715C180.848 26.9895 180.573 26.6399 180.25 26.3227C179.959 26.0052 179.732 25.6072 179.568 25.1286C179.564 24.7446 179.546 24.4888 179.513 24.361C179.48 24.2013 179.381 23.8982 179.217 23.4516L179.189 20.2837C179.187 20.0277 179.169 19.7879 179.135 19.5642C179.133 19.3082 179.099 19.0685 179.033 18.845C178.999 18.6213 178.981 18.4295 178.98 18.2695C179.01 18.1092 179.041 17.9169 179.071 17.6926C179.163 17.3078 179.16 16.9078 179.06 16.4927C179.153 16.1079 179.262 15.7229 179.386 15.3378C179.384 15.1458 179.334 14.8742 179.235 14.5231C179.136 14.1719 179.021 13.8369 178.89 13.5181C178.73 13.5195 178.57 13.5049 178.41 13.4743C178.25 13.4437 178.073 13.4132 177.881 13.3829C177.69 13.4485 177.482 13.5144 177.259 13.5803C177.067 13.646 176.844 13.7119 176.588 13.7782C176.493 13.843 176.349 13.8763 176.157 13.8779C176.125 13.8782 176.061 13.8468 175.964 13.7836C175.9 13.6882 175.867 13.6245 175.867 13.5925C175.834 13.4967 175.817 13.4009 175.816 13.3049C175.815 13.2089 175.815 13.1129 175.814 13.0169C175.78 12.7612 175.761 12.4893 175.759 12.2013C175.756 11.9134 175.754 11.6414 175.752 11.3854C175.749 11.1294 175.731 10.8895 175.697 10.6658C175.663 10.4101 175.613 10.1705 175.547 9.9471C175.578 9.78683 175.608 9.64256 175.639 9.51428C175.67 9.35401 175.701 9.20974 175.731 9.08146L175.723 8.1695C175.721 7.91351 175.751 7.68924 175.814 7.49668C175.908 7.30385 176.082 7.12632 176.337 6.9641C176.528 6.89842 176.736 6.86461 176.96 6.86266C177.216 6.86042 177.488 6.85805 177.776 6.85553C178.032 6.8853 178.288 6.88306 178.544 6.84883C178.831 6.78232 179.086 6.63609 179.308 6.41015C179.372 6.34559 179.451 6.31289 179.547 6.31206C179.675 6.31094 179.771 6.3101 179.835 6.30954C180.476 6.33596 181.033 6.07508 181.509 5.52691C181.539 5.33464 181.633 5.06181 181.79 4.70843C181.692 4.48528 181.609 4.24598 181.543 3.99055C181.477 3.70312 181.394 3.43183 181.296 3.17667C181.359 3.08012 181.422 2.98357 181.486 2.88701C181.549 2.79046 181.596 2.67804 181.627 2.54977C181.689 2.38921 181.688 2.24522 181.623 2.11779C181.557 1.95835 181.54 1.83049 181.572 1.73422C181.506 1.57478 181.473 1.46307 181.473 1.39907C181.472 1.33507 181.439 1.22335 181.374 1.06392C181.405 0.999641 181.437 0.935364 181.468 0.871088C181.499 0.774812 181.53 0.694536 181.562 0.63026C181.593 0.501985 181.624 0.40571 181.655 0.341434C181.687 0.245158 181.718 0.132882 181.748 0.00460761L182.276 0C182.437 0.0306021 182.597 0.0612052 182.757 0.0918092C182.949 0.0901337 183.125 0.0725977 183.285 0.0392012C183.349 0.0386427 183.429 0.0539447 183.525 0.0851073C183.621 0.0842695 183.717 0.0834318 183.813 0.082594C184.358 0.141844 184.886 0.217233 185.399 0.308762C185.944 0.40001 186.472 0.4434 186.984 0.438932C187.048 0.438373 187.113 0.453814 187.177 0.485254C187.273 0.516416 187.337 0.547857 187.37 0.579576C187.498 0.642456 187.611 0.721475 187.708 0.816635C187.677 0.944909 187.63 1.07332 187.567 1.20188C187.504 1.29843 187.457 1.39485 187.426 1.49112C187.395 1.6194 187.364 1.76367 187.333 1.92394C187.335 2.08394 187.32 2.24407 187.29 2.40434C187.26 2.62862 187.23 2.85289 187.199 3.07716C187.169 3.30143 187.124 3.55784 187.062 3.84638C187.094 3.8781 187.111 3.95796 187.112 4.08596C187.113 4.21395 187.13 4.32581 187.163 4.42153C187.133 4.6458 187.087 4.85421 187.025 5.04676C186.994 5.23903 186.964 5.4633 186.935 5.71957C187.353 6.03593 187.804 6.30401 188.286 6.52381C188.8 6.74333 189.409 6.94602 190.115 7.13187C190.469 7.35279 190.68 7.71896 190.749 8.23038C190.755 8.96635 190.713 9.70274 190.624 10.4396C190.594 10.7278 190.565 11.0161 190.535 11.3044C190.506 11.5926 190.508 11.8806 190.543 12.1683C190.129 12.4279 189.634 12.5603 189.058 12.5653C188.962 12.5661 188.867 12.583 188.771 12.6158C188.675 12.6486 188.595 12.6653 188.531 12.6659C188.02 12.7024 187.62 12.7539 187.333 12.8204C187.077 12.8866 186.662 13.0502 186.089 13.3112C185.994 13.4401 185.947 13.6165 185.949 13.8405C185.919 14.0327 185.889 14.225 185.858 14.4173C185.86 14.6093 185.878 14.8171 185.912 15.0408C185.912 15.0408 185.912 15.0568 185.912 15.0888C185.912 15.0888 185.88 15.1051 185.817 15.1377C185.628 15.5233 185.487 15.8126 185.392 16.0054C185.298 16.1983 185.236 16.3908 185.205 16.5831C185.207 16.7751 185.21 17.0951 185.214 17.543L185.234 19.8469C185.235 20.0069 185.252 20.1028 185.284 20.1345C185.319 20.4222 185.465 20.661 185.723 20.8507C185.851 20.8816 185.963 20.9126 186.059 20.9438C186.188 20.9747 186.284 21.0538 186.349 21.1813C186.641 21.5627 186.963 21.7679 187.315 21.7969C187.699 21.7935 188.098 21.726 188.513 21.5944C188.641 21.5293 188.768 21.4642 188.895 21.3991C189.023 21.3339 189.15 21.2848 189.278 21.2517C189.535 21.3135 189.696 21.4561 189.762 21.6795C189.828 21.9029 189.942 22.094 190.103 22.2526C190.264 22.4111 190.394 22.586 190.492 22.7772C190.621 22.9681 190.751 23.1589 190.881 23.3498C190.946 23.5412 191.028 23.7645 191.126 24.0197C191.224 24.2428 191.307 24.4981 191.373 24.7856Z" fill="#BF2C2F"/>
<path d="M216.123 11.0811C216.093 11.4013 216.064 11.7376 216.035 12.0899C216.038 12.4099 216.009 12.7301 215.948 13.0507C215.919 13.3709 215.906 13.7231 215.909 14.107C215.912 14.459 215.851 14.8276 215.727 15.2127C215.663 15.3092 215.584 15.4219 215.49 15.5508C215.394 15.6476 215.299 15.7764 215.205 15.9373C215.206 16.0653 215.207 16.1772 215.208 16.2732C215.241 16.369 215.274 16.4807 215.307 16.6084C215.244 16.7689 215.149 16.9138 215.023 17.0429C214.895 17.14 214.768 17.2211 214.641 17.2862C214.321 17.385 214.018 17.4837 213.731 17.5822C213.476 17.6804 213.205 17.7628 212.917 17.8293C212.47 17.8972 212.006 17.9172 211.526 17.8894C211.045 17.8296 210.565 17.8178 210.085 17.854C209.669 17.8576 209.222 17.8775 208.742 17.9137C208.294 17.9176 207.83 17.9217 207.35 17.9259L204.662 17.9493C204.535 18.0464 204.391 18.0797 204.231 18.0491C204.103 18.0182 203.975 18.0353 203.847 18.1005C203.719 18.0376 203.575 18.0388 203.415 18.1042C203.256 18.1376 203.096 18.123 202.935 18.0604C202.807 18.0935 202.68 18.1266 202.552 18.1598C202.456 18.1606 202.328 18.1777 202.168 18.2111C202.04 18.1802 201.928 18.1492 201.831 18.118C201.735 18.0549 201.623 18.0719 201.496 18.169C201.561 18.2644 201.626 18.3758 201.691 18.5033C201.788 18.5984 201.853 18.7259 201.886 18.8856C201.983 19.0128 202.064 19.14 202.129 19.2675C202.195 19.3949 202.26 19.5384 202.325 19.6978C202.39 19.8252 202.44 19.9688 202.473 20.1285C202.506 20.2562 202.539 20.384 202.572 20.5117C202.734 20.6703 202.911 20.8287 203.105 20.987C203.298 21.1454 203.491 21.3037 203.685 21.462C203.845 21.4926 204.005 21.5232 204.165 21.5538C204.358 21.5841 204.534 21.6146 204.694 21.6452C204.887 21.6755 205.079 21.7058 205.271 21.7362C205.463 21.7665 205.671 21.7647 205.895 21.7307C206.119 21.6648 206.327 21.679 206.519 21.7733C206.712 21.8356 206.92 21.8818 207.145 21.9118C207.432 21.8773 207.72 21.8428 208.008 21.8083C208.328 21.7735 208.631 21.7388 208.919 21.7043C209.046 21.6072 209.173 21.5261 209.301 21.461C209.46 21.3636 209.603 21.2663 209.73 21.1692C210.145 21.0696 210.562 21.082 210.979 21.2063C211.076 21.3655 211.189 21.5245 211.319 21.6834C211.48 21.842 211.626 22.0167 211.755 22.2076C211.95 22.4939 212.145 22.7802 212.339 23.0665C212.533 23.3209 212.664 23.6237 212.731 23.9752C212.796 24.1346 212.894 24.2937 213.023 24.4526C213.153 24.6115 213.25 24.7547 213.315 24.8821C213.348 25.0418 213.334 25.1859 213.271 25.3145C213.24 25.4428 213.209 25.587 213.178 25.7473C213.052 25.8764 212.893 25.9898 212.701 26.0875C212.669 26.0878 212.638 26.12 212.606 26.1843C212.575 26.2486 212.527 26.297 212.463 26.3296C212.273 26.4592 212.082 26.5889 211.891 26.7186C211.7 26.8483 211.525 26.9778 211.366 27.1072C210.922 27.4951 210.459 27.6911 209.979 27.6953C209.787 27.697 209.643 27.7142 209.548 27.7471C209.388 27.7805 209.229 27.8459 209.069 27.9433C208.91 28.0406 208.735 28.1222 208.544 28.1879C208.384 28.1892 208.224 28.2066 208.064 28.24C207.905 28.3054 207.745 28.3548 207.585 28.3882C207.489 28.3891 207.377 28.374 207.249 28.3432C207.121 28.3443 206.993 28.3454 206.865 28.3465C206.577 28.381 206.289 28.3675 206 28.3061C205.712 28.2446 205.424 28.2151 205.136 28.2176C205.039 28.1864 204.943 28.1553 204.847 28.1241C204.751 28.093 204.654 28.0778 204.558 28.0786C204.015 28.1154 203.502 28.0398 203.02 27.852C202.538 27.6322 202.057 27.4124 201.575 27.1926C201.19 27.1 200.916 26.9264 200.754 26.6718C200.528 26.4177 200.27 26.212 199.981 26.0545C199.723 25.8647 199.434 25.7073 199.112 25.5821C198.92 25.5197 198.727 25.4414 198.534 25.3471C198.341 25.2208 198.132 25.0946 197.907 24.9686C197.874 24.8408 197.825 24.7133 197.76 24.5858C197.695 24.4584 197.629 24.3309 197.564 24.2035C197.5 24.1081 197.403 24.0129 197.274 23.918C197.177 23.8229 197.08 23.7277 196.983 23.6326C196.887 23.5374 196.806 23.4261 196.74 23.2987C196.576 22.7561 196.411 22.2295 196.247 21.7189C196.082 21.1763 195.869 20.6502 195.609 20.1404C195.639 19.9162 195.653 19.692 195.651 19.468C195.681 19.2118 195.662 18.9399 195.596 18.6525C195.563 18.5888 195.547 18.5089 195.546 18.4129C195.545 18.3169 195.544 18.2369 195.544 18.1729C195.542 18.0129 195.541 17.8849 195.54 17.7889C195.571 17.6607 195.57 17.5487 195.537 17.4529C195.503 17.1972 195.469 16.9415 195.435 16.6858C195.4 16.4301 195.414 16.19 195.476 15.9654C195.538 15.7089 195.6 15.4523 195.662 15.1958C195.723 14.9392 195.801 14.6665 195.895 14.3777C195.862 14.314 195.845 14.2181 195.844 14.0901C195.843 13.9621 195.826 13.8343 195.793 13.7066C195.854 13.354 195.915 13.0015 195.975 12.6489C196.036 12.2964 196.113 11.9597 196.207 11.6389C196.301 11.4461 196.395 11.2692 196.49 11.1084C196.616 10.9153 196.743 10.7222 196.869 10.5291C197.09 10.1431 197.262 9.7736 197.387 9.42049C197.77 9.22515 197.993 9.1112 198.056 9.07864C198.152 9.01381 198.231 8.93311 198.294 8.83656C198.357 8.74 198.564 8.54619 198.913 8.25513C198.88 8.15942 198.959 8.01472 199.149 7.82105C199.34 7.62739 199.402 7.46684 199.337 7.3394C199.621 6.79291 200.033 6.35729 200.574 6.03256C200.765 5.90289 200.94 5.77336 201.099 5.64396C201.289 5.48229 201.448 5.3369 201.575 5.20779C201.734 5.1104 201.878 5.07714 202.006 5.10803C202.166 5.10663 202.31 5.10537 202.438 5.10426C202.534 5.07142 202.629 5.05458 202.725 5.05374C202.853 5.02063 202.981 4.98751 203.109 4.9544C203.172 4.92184 203.252 4.88914 203.348 4.85631C203.443 4.82347 203.523 4.77477 203.586 4.71022C203.65 4.67766 203.714 4.6451 203.778 4.61255C203.841 4.57999 203.905 4.56343 203.969 4.56287C204.257 4.52836 204.528 4.44599 204.783 4.31576C205.038 4.18553 205.277 4.05544 205.5 3.92549C205.981 4.1133 206.478 4.17296 206.989 4.1045C207.309 4.06971 207.613 4.08305 207.902 4.14454C208.222 4.20574 208.511 4.28323 208.768 4.37699L209.438 4.17913C209.694 4.2089 209.935 4.2868 210.16 4.41284C210.385 4.53888 210.61 4.66492 210.835 4.79096L211.267 4.78719C211.3 4.81891 211.332 4.85063 211.364 4.88235C211.396 4.88207 211.428 4.89779 211.461 4.92951C211.815 5.24643 212.154 5.54748 212.477 5.83268C212.799 6.08588 213.137 6.35494 213.492 6.63985C213.974 6.95565 214.282 7.33698 214.414 7.78385C214.543 7.97473 214.657 8.11774 214.753 8.2129C215.14 8.52954 215.48 8.95859 215.773 9.50006C215.773 9.56405 215.774 9.66005 215.775 9.78804C215.808 9.88376 215.825 9.97962 215.826 10.0756C215.795 10.2359 215.829 10.3956 215.926 10.5548C216.023 10.7139 216.089 10.8893 216.123 11.0811ZM210.041 12.7182L210.03 11.5182C210.029 11.3583 210.012 11.2624 209.98 11.2307C209.947 11.135 209.898 11.0394 209.833 10.9439C209.8 10.8482 209.768 10.7845 209.735 10.7528L209.728 9.93682L209.583 9.79408C209.455 9.7952 209.295 9.7646 209.102 9.70227C209.036 9.41484 208.954 9.19155 208.856 9.03239C208.759 8.90524 208.631 8.82636 208.47 8.79575C208.31 8.76515 208.134 8.71869 207.941 8.65637C207.526 8.78799 207.079 8.9039 206.6 9.00408C206.121 9.10427 205.658 9.23631 205.211 9.40022C204.988 9.43417 204.78 9.45198 204.588 9.45366C204.396 9.45533 204.204 9.47301 204.012 9.50668C203.693 9.63747 203.407 9.84798 203.154 10.1382C202.932 10.3961 202.71 10.6541 202.489 10.912C202.362 11.0731 202.251 11.2501 202.157 11.4429C202.063 11.6358 201.952 11.8127 201.826 11.9739C201.794 12.0061 201.779 12.1023 201.78 12.2623C201.879 12.5174 202.024 12.6762 202.216 12.7385C202.409 12.7688 202.601 12.8151 202.794 12.8774C202.986 12.9398 203.195 13.002 203.419 13.064C203.515 13.0312 203.595 13.0145 203.659 13.0139C203.755 13.0131 203.851 12.9962 203.947 12.9634C204.329 12.8 204.649 12.7813 204.906 12.907C205.162 12.9368 205.386 12.9348 205.578 12.9012C205.802 12.8672 206.025 12.8332 206.249 12.7993C206.442 12.8936 206.635 12.9559 206.827 12.9863C207.051 13.0163 207.26 13.0625 207.452 13.1248C207.869 13.2492 208.27 13.3097 208.654 13.3063C209.038 13.303 209.421 13.2516 209.804 13.1523C209.963 12.9909 210.042 12.8462 210.041 12.7182Z" fill="#BF2C2F"/>
<path d="M235.28 8.41778C235.187 8.83461 234.999 9.18827 234.713 9.47877C234.586 9.60788 234.475 9.75286 234.381 9.91369C234.318 10.0422 234.223 10.1391 234.095 10.2042C233.968 10.3333 233.873 10.4461 233.81 10.5427C233.747 10.6392 233.684 10.7678 233.622 10.9284C233.464 11.2497 233.193 11.2841 232.807 11.0315C232.613 10.9051 232.484 10.7783 232.419 10.6508L231.843 10.6079C231.779 10.6084 231.731 10.5928 231.698 10.5611C231.538 10.4985 231.425 10.4035 231.36 10.2761C231.294 10.1166 231.181 9.98961 231.021 9.89501C230.539 9.67521 230.057 9.5194 229.576 9.4276C229.096 9.33579 228.6 9.37211 228.089 9.53658C227.773 9.95535 227.568 10.2612 227.473 10.454C227.379 10.6148 227.269 10.9198 227.145 11.3689C227.147 11.5929 227.181 11.8166 227.247 12.04C227.345 12.2312 227.427 12.4545 227.493 12.7099C227.655 12.9645 227.865 13.1387 228.122 13.2324C228.25 13.2313 228.378 13.2462 228.506 13.2771C228.634 13.276 228.762 13.2908 228.89 13.3217C229.019 13.4166 229.132 13.5116 229.229 13.6068C229.325 13.6699 229.422 13.7331 229.519 13.7963C229.744 13.9223 229.953 14.0965 230.147 14.3188C230.373 14.5088 230.598 14.6509 230.823 14.7449C231.08 14.8707 231.321 14.9806 231.546 15.0746C231.771 15.1687 231.996 15.2787 232.221 15.4047C232.413 15.4351 232.574 15.5137 232.703 15.6405C232.864 15.7671 233.009 15.9099 233.138 16.0688C233.236 16.2599 233.35 16.4509 233.479 16.6418C233.641 16.8324 233.787 17.0391 233.917 17.262C234.016 17.6132 234.099 17.9805 234.167 18.3639C234.266 18.715 234.317 19.0986 234.321 19.5146C234.323 19.8026 234.342 20.0904 234.376 20.3781C234.41 20.6338 234.445 20.9055 234.479 21.1933C234.513 21.353 234.53 21.5288 234.532 21.7208C234.566 21.9125 234.567 22.1205 234.537 22.3448C234.443 22.5376 234.349 22.7465 234.255 22.9713C234.161 23.1961 234.083 23.4368 234.021 23.6934C233.897 24.1744 233.725 24.624 233.505 25.0419C233.378 25.203 233.236 25.3643 233.077 25.5257C232.918 25.687 232.76 25.8484 232.601 26.0098C232.506 26.0747 232.426 26.1554 232.363 26.2519C232.3 26.3485 232.237 26.429 232.173 26.4936C231.855 26.6884 231.601 26.9146 231.411 27.1723C231.222 27.4299 231.048 27.7035 230.89 27.9928C230.667 28.0268 230.443 28.0607 230.219 28.0947C229.996 28.1606 229.756 28.2267 229.501 28.293C229.309 28.3266 229.118 28.3763 228.926 28.442C228.735 28.5397 228.56 28.6212 228.4 28.6866L227.248 28.6966C226.895 28.5397 226.559 28.4787 226.239 28.5134C225.919 28.5482 225.584 28.6152 225.233 28.7142C224.913 28.781 224.689 28.751 224.56 28.6241C224.334 28.4661 224.093 28.3402 223.836 28.2464C223.612 28.1844 223.387 28.1383 223.163 28.1083C222.84 27.7911 222.502 27.49 222.147 27.2051C221.793 26.9202 221.47 26.603 221.179 26.2535C221.178 26.1575 221.161 26.0617 221.128 25.9659C221.127 25.838 221.126 25.726 221.125 25.63C221.123 25.374 221.121 25.15 221.12 24.958C221.15 24.7337 221.164 24.5096 221.162 24.2856C221.254 23.8368 221.41 23.4034 221.63 22.9855C221.883 22.5672 222.119 22.1492 222.339 21.7312C222.532 21.7615 222.708 21.792 222.868 21.8226C223.029 21.8532 223.205 21.8997 223.398 21.962C223.559 22.0886 223.752 22.1989 223.976 22.293C224.201 22.387 224.426 22.481 224.651 22.5751C224.94 22.7326 225.165 22.7946 225.325 22.7612C225.453 22.7601 225.565 22.7751 225.661 22.8063C225.757 22.8374 225.87 22.8685 225.998 22.8993C226.383 23.056 226.751 23.0048 227.101 22.7457C227.26 22.6483 227.403 22.5511 227.53 22.4539C227.689 22.3246 227.815 22.1634 227.91 21.9706C227.908 21.7786 227.906 21.5706 227.904 21.3466C227.902 21.0906 227.916 20.8505 227.946 20.6262C227.945 20.5303 227.928 20.4344 227.896 20.3387C227.863 20.243 227.83 20.1472 227.797 20.0515C227.764 19.9238 227.731 19.8121 227.698 19.7164L227.022 19.1943C226.892 19.0354 226.795 18.8762 226.729 18.7168C226.664 18.5254 226.55 18.3823 226.39 18.2877L225.235 17.9618C225.042 17.8675 224.881 17.7569 224.752 17.63C224.623 17.5031 224.494 17.3923 224.365 17.2974C224.3 17.2339 224.236 17.1865 224.172 17.1551C224.107 17.1236 224.043 17.0922 223.979 17.0607C223.85 17.0299 223.722 16.999 223.594 16.9681C223.466 16.9372 223.321 16.8905 223.161 16.8279C222.967 16.6695 222.71 16.5278 222.389 16.4026C222.195 16.1803 222.065 15.9574 221.999 15.734C221.933 15.5105 221.819 15.3035 221.658 15.1129C221.528 14.954 221.399 14.7792 221.269 14.5883C221.139 14.3974 220.994 14.2067 220.832 14.0161C220.733 13.6649 220.634 13.3138 220.535 12.9626C220.468 12.5792 220.384 12.2119 220.285 11.8608C220.121 11.3822 220.101 10.9183 220.225 10.4692C220.287 10.1807 220.348 9.87614 220.409 9.5556C220.502 9.23477 220.612 8.91381 220.737 8.5927C220.925 8.20704 221.161 7.67697 221.443 7.00248C221.758 6.48771 222.17 6.02009 222.679 5.59964C223.219 5.14691 223.743 4.69432 224.251 4.24187C224.378 4.17676 224.522 4.1275 224.682 4.09411C224.841 4.02871 224.985 3.97946 225.112 3.94634C225.495 3.815 225.782 3.71649 225.974 3.65081C226.165 3.55314 226.372 3.48733 226.596 3.45337C226.852 3.41914 227.22 3.39993 227.7 3.39574L227.796 3.3949C228.242 3.231 228.674 3.17923 229.09 3.2396C229.539 3.29969 229.972 3.39192 230.389 3.51628C230.485 3.51544 230.581 3.5306 230.677 3.56176C230.805 3.56065 230.885 3.55995 230.917 3.55967C231.207 3.71715 231.448 3.90705 231.642 4.12936C231.868 4.3514 232.11 4.5573 232.368 4.74706C232.528 4.84166 232.705 4.93612 232.898 5.03044C233.091 5.09276 233.267 5.17122 233.428 5.26582C233.75 5.51902 234.025 5.80464 234.252 6.12267C234.511 6.44042 234.753 6.74232 234.98 7.02835C235.046 7.25178 235.096 7.47536 235.13 7.69907C235.163 7.92278 235.214 8.16235 235.28 8.41778Z" fill="#BF2C2F"/>
</svg>
