<svg width="139" height="144" viewBox="0 0 139 144" fill="none" xmlns="http://www.w3.org/2000/svg">
<path d="M34.1081 2.20807C33.0928 0.483055 37.1795 -0.774369 39.4751 0.556719L67.2014 16.6336C68.4593 17.363 70.6187 17.363 71.8766 16.6336L99.6029 0.556715C101.898 -0.774372 105.985 0.483059 104.97 2.20807L92.7072 23.0428C92.1508 23.9881 93.2306 24.9847 95.0448 25.2006L135.034 29.9584C138.345 30.3523 138.345 32.8672 135.034 33.2611L95.0448 38.0189C93.2306 38.2348 92.1508 39.2314 92.7072 40.1767L104.97 61.0114C105.985 62.7365 101.898 63.9939 99.6029 62.6628L71.8766 46.5859C70.6187 45.8565 68.4593 45.8565 67.2014 46.5859L39.4751 62.6628C37.1795 63.9939 33.0928 62.7365 34.1081 61.0114L46.3708 40.1767C46.9272 39.2314 45.8474 38.2348 44.0332 38.0189L4.04419 33.2611C0.73331 32.8672 0.733318 30.3523 4.0442 29.9584L44.0332 25.2006C45.8474 24.9847 46.9272 23.9881 46.3708 23.0428L34.1081 2.20807Z" fill="#649757"/>
<ellipse cx="69.465" cy="86.0502" rx="69.465" ry="57.9525" fill="url(#paint0_linear_419_1665)"/>
<ellipse cx="39.1813" cy="63.3617" rx="28.0976" ry="19.8336" transform="rotate(-18.4911 39.1813 63.3617)" fill="#F6F6F6"/>
<ellipse cx="99.6689" cy="63.2328" rx="28.0976" ry="19.8336" transform="rotate(18.49 99.6689 63.2328)" fill="#F6F6F6"/>
<ellipse cx="103.972" cy="62.6346" rx="19.5122" ry="14.6341" transform="rotate(9.87354 103.972 62.6346)" fill="#434343"/>
<ellipse cx="45.5145" cy="61.7673" rx="19.5122" ry="14.6341" transform="rotate(-13.06 45.5145 61.7673)" fill="#434343"/>
<circle cx="117.473" cy="56.8487" r="3.90244" fill="#F6F6F6"/>
<circle cx="61.922" cy="55.9806" r="3.90244" fill="#F6F6F6"/>
<path d="M50.7318 87.8047C50.7318 87.8047 59.4791 92.9114 65.6666 93.718C68.9134 94.1412 70.8023 94.1761 74.0447 93.718C79.9411 92.8849 88.1952 87.8047 88.1952 87.8047" stroke="#434343" stroke-width="6.2439" stroke-linecap="round"/>
<path d="M76.844 39.4435L91.8833 30.7605" stroke="#434343" stroke-width="10.4195" stroke-linecap="round"/>
<path d="M62.3613 39.4435L47.3221 30.7605" stroke="#434343" stroke-width="10.4195" stroke-linecap="round"/>
<defs>
<linearGradient id="paint0_linear_419_1665" x1="102.461" y1="36.4047" x2="13.0247" y2="131.485" gradientUnits="userSpaceOnUse">
<stop stop-color="#BF2C2F"/>
<stop offset="0.65749" stop-color="#BF2C2F"/>
<stop offset="1" stop-color="#9F2C2F"/>
</linearGradient>
</defs>
</svg>
