<svg width="139" height="141" viewBox="0 0 139 141" fill="none" xmlns="http://www.w3.org/2000/svg">
<path d="M34.1079 2.20807C33.0926 0.483055 37.1794 -0.774369 39.475 0.556719L67.2012 16.6336C68.4592 17.363 70.6186 17.363 71.8765 16.6336L99.6027 0.556715C101.898 -0.774372 105.985 0.483059 104.97 2.20807L92.7071 23.0428C92.1507 23.9881 93.2304 24.9847 95.0447 25.2006L135.034 29.9584C138.345 30.3523 138.345 32.8672 135.034 33.2611L95.0447 38.0189C93.2304 38.2348 92.1507 39.2314 92.7071 40.1767L104.97 61.0114C105.985 62.7365 101.898 63.9939 99.6027 62.6628L71.8765 46.5859C70.6186 45.8565 68.4592 45.8565 67.2012 46.5859L39.475 62.6628C37.1794 63.9939 33.0927 62.7365 34.1079 61.0114L46.3707 40.1767C46.927 39.2314 45.8473 38.2348 44.0331 38.0189L4.04407 33.2611C0.733188 32.8672 0.733196 30.3523 4.04408 29.9584L44.0331 25.2006C45.8473 24.9847 46.927 23.9881 46.3707 23.0428L34.1079 2.20807Z" fill="#649757"/>
<ellipse cx="69.465" cy="82.577" rx="69.465" ry="57.9525" fill="url(#paint0_linear_419_1677)"/>
<ellipse cx="40.9581" cy="59.6385" rx="26.4467" ry="18.6683" fill="#F6F6F6"/>
<ellipse cx="97.8921" cy="59.6385" rx="26.4467" ry="18.6683" fill="#F6F6F6"/>
<ellipse cx="92.4488" cy="58.7806" rx="19.5122" ry="14.6341" fill="#434343"/>
<ellipse cx="35.5757" cy="58.7806" rx="19.5122" ry="14.6341" fill="#434343"/>
<circle cx="104.449" cy="50.6537" r="3.90244" fill="#F6F6F6"/>
<circle cx="48.2732" cy="50.6537" r="3.90244" fill="#F6F6F6"/>
<path d="M52.0975 84.7657L82.117 84.7658M82.117 84.7658L86.4585 78.1462M82.117 84.7658L86.4585 91.6048" stroke="#434343" stroke-width="6.94634" stroke-linecap="round"/>
<path d="M78.2855 31.6293L95.6513 31.6293" stroke="#434343" stroke-width="10.4195" stroke-linecap="round"/>
<path d="M60.0514 31.6288L42.6856 31.6288" stroke="#434343" stroke-width="10.4195" stroke-linecap="round"/>
<defs>
<linearGradient id="paint0_linear_419_1677" x1="102.461" y1="32.9316" x2="13.0247" y2="128.012" gradientUnits="userSpaceOnUse">
<stop stop-color="#BF2C2F"/>
<stop offset="0.65749" stop-color="#BF2C2F"/>
<stop offset="1" stop-color="#9F2C2F"/>
</linearGradient>
</defs>
</svg>
