<svg width="139" height="144" viewBox="0 0 139 144" fill="none" xmlns="http://www.w3.org/2000/svg">
<path d="M34.108 2.20807C33.0927 0.483055 37.1795 -0.774369 39.4751 0.556719L67.2013 16.6336C68.4592 17.363 70.6187 17.363 71.8766 16.6336L99.6028 0.556715C101.898 -0.774372 105.985 0.483059 104.97 2.20807L92.7071 23.0428C92.1508 23.9881 93.2305 24.9847 95.0448 25.2006L135.034 29.9584C138.345 30.3523 138.345 32.8672 135.034 33.2611L95.0448 38.0189C93.2305 38.2348 92.1508 39.2314 92.7071 40.1767L104.97 61.0114C105.985 62.7365 101.898 63.9939 99.6028 62.6628L71.8766 46.5859C70.6187 45.8565 68.4592 45.8565 67.2013 46.5859L39.4751 62.6628C37.1795 63.9939 33.0927 62.7365 34.108 61.0114L46.3708 40.1767C46.9271 39.2314 45.8474 38.2348 44.0331 38.0189L4.04413 33.2611C0.733249 32.8672 0.733257 30.3523 4.04414 29.9584L44.0331 25.2006C45.8474 24.9847 46.9271 23.9881 46.3708 23.0428L34.108 2.20807Z" fill="#649757"/>
<ellipse cx="69.465" cy="86.0502" rx="69.465" ry="57.9525" fill="url(#paint0_linear_419_1706)"/>
<ellipse cx="39.1813" cy="63.3617" rx="28.0976" ry="19.8336" transform="rotate(-18.4911 39.1813 63.3617)" fill="#F6F6F6"/>
<ellipse cx="99.6689" cy="63.2328" rx="28.0976" ry="19.8336" transform="rotate(18.49 99.6689 63.2328)" fill="#F6F6F6"/>
<circle cx="69.5092" cy="95.07" r="19.3171" fill="#434343"/>
<ellipse cx="95.2894" cy="60.0298" rx="19.5122" ry="14.6341" transform="rotate(9.87354 95.2894 60.0298)" fill="#434343"/>
<ellipse cx="43.7778" cy="60.0308" rx="19.5122" ry="14.6341" transform="rotate(-13.06 43.7778 60.0308)" fill="#434343"/>
<circle cx="109.659" cy="54.244" r="3.90244" fill="#F6F6F6"/>
<circle cx="59.3171" cy="54.244" r="3.90244" fill="#F6F6F6"/>
<path d="M93.297 49.1547C93.3456 48.9883 93.5813 48.9883 93.6299 49.1547L95.9093 56.9487C95.9259 57.0055 95.9703 57.0499 96.027 57.0665L103.821 59.3458C103.987 59.3945 103.987 59.6301 103.821 59.6787L96.027 61.9581C95.9703 61.9747 95.9259 62.0191 95.9093 62.0759L93.6299 69.8699C93.5813 70.0362 93.3456 70.0362 93.297 69.8699L91.0176 62.0759C91.001 62.0191 90.9566 61.9747 90.8999 61.9581L83.1058 59.6787C82.9395 59.6301 82.9395 59.3945 83.1058 59.3458L90.8999 57.0665C90.9566 57.0499 91.001 57.0055 91.0176 56.9487L93.297 49.1547Z" fill="#E8AB29"/>
<path d="M43.1506 48.5692C43.1993 48.4029 43.4349 48.4029 43.4836 48.5692L45.7629 56.3632C45.7795 56.42 45.8239 56.4644 45.8807 56.481L53.6747 58.7604C53.841 58.809 53.841 59.0447 53.6747 59.0933L45.8807 61.3726C45.8239 61.3892 45.7795 61.4336 45.7629 61.4904L43.4836 69.2844C43.4349 69.4508 43.1993 69.4508 43.1506 69.2844L40.8713 61.4904C40.8547 61.4336 40.8103 61.3892 40.7535 61.3726L32.9595 59.0933C32.7931 59.0447 32.7931 58.809 32.9595 58.7604L40.7535 56.481C40.8103 56.4644 40.8547 56.42 40.8713 56.3632L43.1506 48.5692Z" fill="#E8AB29"/>
<path d="M76.4098 39.5799L91.4491 30.897" stroke="#434343" stroke-width="10.4195" stroke-linecap="round"/>
<path d="M61.9271 39.5799L46.8878 30.897" stroke="#434343" stroke-width="10.4195" stroke-linecap="round"/>
<defs>
<linearGradient id="paint0_linear_419_1706" x1="102.461" y1="36.4047" x2="13.0247" y2="131.485" gradientUnits="userSpaceOnUse">
<stop stop-color="#BF2C2F"/>
<stop offset="0.65749" stop-color="#BF2C2F"/>
<stop offset="1" stop-color="#9F2C2F"/>
</linearGradient>
</defs>
</svg>
