<svg width="160" height="166" viewBox="0 0 160 166" fill="none" xmlns="http://www.w3.org/2000/svg">
<path d="M39.2817 2.543C38.1124 0.556327 42.8191 -0.891829 45.4629 0.641165L77.3948 19.1567C78.8435 19.9968 81.3305 19.9968 82.7792 19.1567L114.711 0.641161C117.355 -0.891833 122.062 0.556332 120.892 2.543L106.769 26.5381C106.129 27.6267 107.372 28.7745 109.462 29.0231L155.516 34.5027C159.329 34.9563 159.329 37.8527 155.516 38.3063L109.462 43.7859C107.372 44.0345 106.129 45.1823 106.769 46.2709L120.892 70.266C122.062 72.2527 117.355 73.7008 114.711 72.1678L82.7792 53.6523C81.3305 52.8122 78.8435 52.8122 77.3948 53.6523L45.4629 72.1678C42.8191 73.7008 38.1124 72.2527 39.2817 70.266L53.4045 46.2709C54.0453 45.1823 52.8018 44.0345 50.7123 43.7859L4.65758 38.3063C0.844481 37.8527 0.84449 34.9563 4.65759 34.5027L50.7123 29.0231C52.8018 28.7745 54.0453 27.6267 53.4045 26.5381L39.2817 2.543Z" fill="#649757"/>
<ellipse cx="80" cy="99.1012" rx="80" ry="66.7416" fill="url(#paint0_linear_417_1441)"/>
<ellipse cx="45.1244" cy="72.9727" rx="32.3596" ry="22.842" transform="rotate(-18.4911 45.1244 72.9727)" fill="#F6F6F6"/>
<ellipse cx="114.787" cy="72.8243" rx="32.3596" ry="22.842" transform="rotate(18.49 114.787 72.8243)" fill="#F6F6F6"/>
<ellipse cx="109.743" cy="69.1354" rx="22.4719" ry="16.8539" transform="rotate(9.87354 109.743 69.1354)" fill="#434343"/>
<ellipse cx="50.4183" cy="69.1366" rx="22.4719" ry="16.8539" transform="rotate(-13.06 50.4183 69.1366)" fill="#434343"/>
<circle cx="126.292" cy="62.4719" r="4.49438" fill="#F6F6F6"/>
<circle cx="68.3146" cy="62.4719" r="4.49438" fill="#F6F6F6"/>
<path d="M58.427 101.124C58.427 101.124 68.5011 107.005 75.6272 107.934C79.3665 108.421 81.5418 108.461 85.2761 107.934C92.0669 106.974 101.573 101.124 101.573 101.124" stroke="#434343" stroke-width="7.19101" stroke-linecap="round"/>
<path d="M88.5 45.4266L105.821 35.4265" stroke="#434343" stroke-width="12" stroke-linecap="round"/>
<path d="M71.8205 45.4266L54.5 35.4265" stroke="#434343" stroke-width="12" stroke-linecap="round"/>
<defs>
<linearGradient id="paint0_linear_417_1441" x1="118" y1="41.9265" x2="15" y2="151.427" gradientUnits="userSpaceOnUse">
<stop stop-color="#BF2C2F"/>
<stop offset="0.65749" stop-color="#BF2C2F"/>
<stop offset="1" stop-color="#9F2C2F"/>
</linearGradient>
</defs>
</svg>
